M48
;DRILL file {KiCad 5.0.2-bee76a0~70~ubuntu18.04.1} date sob, 2 mar 2019, 20:56:12
;FORMAT={-:-/ absolute / inch / decimal}
FMAT,2
INCH,TZ
T1C0.0157
T2C0.0394
%
G90
G05
T1
X3.925Y-2.15
T2
X1.75Y-2.7
X1.85Y-2.7
X1.95Y-2.7
X2.05Y-2.7
X2.15Y-2.7
X2.25Y-2.7
X2.35Y-2.7
X2.45Y-2.7
X2.55Y-2.7
X2.65Y-2.7
X2.75Y-2.7
X2.85Y-2.7
X2.95Y-2.7
X3.05Y-2.7
X3.15Y-2.7
X3.25Y-2.7
X3.35Y-2.7
X3.45Y-2.7
X3.55Y-2.7
X3.65Y-2.7
X1.55Y-1.9
X1.55Y-2.
X1.55Y-2.1
X1.55Y-2.2
X1.55Y-2.3
X1.55Y-2.4
X1.55Y-2.5
X1.75Y-2.3
X1.75Y-2.4
X1.85Y-2.3
X1.85Y-2.4
X1.95Y-2.3
X1.95Y-2.4
X2.05Y-2.3
X2.05Y-2.4
X2.15Y-2.3
X2.15Y-2.4
X2.25Y-2.3
X2.25Y-2.4
X2.35Y-2.3
X2.35Y-2.4
X2.45Y-2.3
X2.45Y-2.4
X2.55Y-2.3
X2.55Y-2.4
X2.65Y-2.3
X2.65Y-2.4
X2.75Y-2.3
X2.75Y-2.4
X2.85Y-2.3
X2.85Y-2.4
X2.95Y-2.3
X2.95Y-2.4
X3.05Y-2.3
X3.05Y-2.4
X3.15Y-2.3
X3.15Y-2.4
X3.25Y-2.3
X3.25Y-2.4
X3.35Y-2.3
X3.35Y-2.4
X3.45Y-2.3
X3.45Y-2.4
X3.55Y-2.3
X3.55Y-2.4
X3.65Y-2.3
X3.65Y-2.4
X1.75Y-2.1
X1.75Y-2.2
X1.85Y-2.1
X1.85Y-2.2
X1.95Y-2.1
X1.95Y-2.2
X2.05Y-2.1
X2.05Y-2.2
X2.15Y-2.1
X2.15Y-2.2
X2.25Y-2.1
X2.25Y-2.2
X2.35Y-2.1
X2.35Y-2.2
X2.45Y-2.1
X2.45Y-2.2
X2.55Y-2.1
X2.55Y-2.2
X2.65Y-2.1
X2.65Y-2.2
X2.75Y-2.1
X2.75Y-2.2
X2.85Y-2.1
X2.85Y-2.2
X2.95Y-2.1
X2.95Y-2.2
X3.05Y-2.1
X3.05Y-2.2
X3.15Y-2.1
X3.15Y-2.2
X3.25Y-2.1
X3.25Y-2.2
X3.35Y-2.1
X3.35Y-2.2
X3.45Y-2.1
X3.45Y-2.2
X3.55Y-2.1
X3.55Y-2.2
X3.65Y-2.1
X3.65Y-2.2
X1.75Y-1.9
X1.75Y-2.
X1.85Y-1.9
X1.85Y-2.
X1.95Y-1.9
X1.95Y-2.
X2.05Y-1.9
X2.05Y-2.
X2.15Y-1.9
X2.15Y-2.
X2.25Y-1.9
X2.25Y-2.
X2.35Y-1.9
X2.35Y-2.
X2.45Y-1.9
X2.45Y-2.
X2.55Y-1.9
X2.55Y-2.
X2.65Y-1.9
X2.65Y-2.
X2.75Y-1.9
X2.75Y-2.
X2.85Y-1.9
X2.85Y-2.
X2.95Y-1.9
X2.95Y-2.
X3.05Y-1.9
X3.05Y-2.
X3.15Y-1.9
X3.15Y-2.
X3.25Y-1.9
X3.25Y-2.
X3.35Y-1.9
X3.35Y-2.
X3.45Y-1.9
X3.45Y-2.
X3.55Y-1.9
X3.55Y-2.
X3.65Y-1.9
X3.65Y-2.
X1.75Y-2.5
X1.75Y-2.6
X1.85Y-2.5
X1.85Y-2.6
X1.95Y-2.5
X1.95Y-2.6
X2.05Y-2.5
X2.05Y-2.6
X2.15Y-2.5
X2.15Y-2.6
X2.25Y-2.5
X2.25Y-2.6
X2.35Y-2.5
X2.35Y-2.6
X2.45Y-2.5
X2.45Y-2.6
X2.55Y-2.5
X2.55Y-2.6
X2.65Y-2.5
X2.65Y-2.6
X2.75Y-2.5
X2.75Y-2.6
X2.85Y-2.5
X2.85Y-2.6
X2.95Y-2.5
X2.95Y-2.6
X3.05Y-2.5
X3.05Y-2.6
X3.15Y-2.5
X3.15Y-2.6
X3.25Y-2.5
X3.25Y-2.6
X3.35Y-2.5
X3.35Y-2.6
X3.45Y-2.5
X3.45Y-2.6
X3.55Y-2.5
X3.55Y-2.6
X3.65Y-2.5
X3.65Y-2.6
X1.75Y-1.7
X1.75Y-1.8
X1.85Y-1.7
X1.85Y-1.8
X1.95Y-1.7
X1.95Y-1.8
X2.05Y-1.7
X2.05Y-1.8
X2.15Y-1.7
X2.15Y-1.8
X2.25Y-1.7
X2.25Y-1.8
X2.35Y-1.7
X2.35Y-1.8
X2.45Y-1.7
X2.45Y-1.8
X2.55Y-1.7
X2.55Y-1.8
X2.65Y-1.7
X2.65Y-1.8
X2.75Y-1.7
X2.75Y-1.8
X2.85Y-1.7
X2.85Y-1.8
X2.95Y-1.7
X2.95Y-1.8
X3.05Y-1.7
X3.05Y-1.8
X3.15Y-1.7
X3.15Y-1.8
X3.25Y-1.7
X3.25Y-1.8
X3.35Y-1.7
X3.35Y-1.8
X3.45Y-1.7
X3.45Y-1.8
X3.55Y-1.7
X3.55Y-1.8
X3.65Y-1.7
X3.65Y-1.8
X1.65Y-1.9
X1.65Y-2.
X1.65Y-2.1
X1.65Y-2.2
X1.65Y-2.3
X1.65Y-2.4
X1.65Y-2.5
T0
M30
