G04 #@! TF.GenerationSoftware,KiCad,Pcbnew,5.0.2-bee76a0~70~ubuntu18.04.1*
G04 #@! TF.CreationDate,2019-03-02T20:55:38+01:00*
G04 #@! TF.ProjectId,rpi-zero-proto,7270692d-7a65-4726-9f2d-70726f746f2e,rev?*
G04 #@! TF.SameCoordinates,Original*
G04 #@! TF.FileFunction,Legend,Bot*
G04 #@! TF.FilePolarity,Positive*
%FSLAX46Y46*%
G04 Gerber Fmt 4.6, Leading zero omitted, Abs format (unit mm)*
G04 Created by KiCad (PCBNEW 5.0.2-bee76a0~70~ubuntu18.04.1) date sob, 2 mar 2019, 20:55:38*
%MOMM*%
%LPD*%
G01*
G04 APERTURE LIST*
%ADD10C,0.100000*%
G04 APERTURE END LIST*
D10*
X99594047Y-47675000D02*
X99641666Y-47651190D01*
X99713095Y-47651190D01*
X99784523Y-47675000D01*
X99832142Y-47722619D01*
X99855952Y-47770238D01*
X99879761Y-47865476D01*
X99879761Y-47936904D01*
X99855952Y-48032142D01*
X99832142Y-48079761D01*
X99784523Y-48127380D01*
X99713095Y-48151190D01*
X99665476Y-48151190D01*
X99594047Y-48127380D01*
X99570238Y-48103571D01*
X99570238Y-47936904D01*
X99665476Y-47936904D01*
X99355952Y-48151190D02*
X99355952Y-47651190D01*
X99165476Y-47651190D01*
X99117857Y-47675000D01*
X99094047Y-47698809D01*
X99070238Y-47746428D01*
X99070238Y-47817857D01*
X99094047Y-47865476D01*
X99117857Y-47889285D01*
X99165476Y-47913095D01*
X99355952Y-47913095D01*
X98760714Y-47651190D02*
X98713095Y-47651190D01*
X98665476Y-47675000D01*
X98641666Y-47698809D01*
X98617857Y-47746428D01*
X98594047Y-47841666D01*
X98594047Y-47960714D01*
X98617857Y-48055952D01*
X98641666Y-48103571D01*
X98665476Y-48127380D01*
X98713095Y-48151190D01*
X98760714Y-48151190D01*
X98808333Y-48127380D01*
X98832142Y-48103571D01*
X98855952Y-48055952D01*
X98879761Y-47960714D01*
X98879761Y-47841666D01*
X98855952Y-47746428D01*
X98832142Y-47698809D01*
X98808333Y-47675000D01*
X98760714Y-47651190D01*
X97998809Y-47960714D02*
X97617857Y-47960714D01*
X97379761Y-48151190D02*
X97379761Y-47651190D01*
X97141666Y-48151190D02*
X97141666Y-47651190D01*
X97022619Y-47651190D01*
X96951190Y-47675000D01*
X96903571Y-47722619D01*
X96879761Y-47770238D01*
X96855952Y-47865476D01*
X96855952Y-47936904D01*
X96879761Y-48032142D01*
X96903571Y-48079761D01*
X96951190Y-48127380D01*
X97022619Y-48151190D01*
X97141666Y-48151190D01*
X96760714Y-48198809D02*
X96379761Y-48198809D01*
X96284523Y-48127380D02*
X96213095Y-48151190D01*
X96094047Y-48151190D01*
X96046428Y-48127380D01*
X96022619Y-48103571D01*
X95998809Y-48055952D01*
X95998809Y-48008333D01*
X96022619Y-47960714D01*
X96046428Y-47936904D01*
X96094047Y-47913095D01*
X96189285Y-47889285D01*
X96236904Y-47865476D01*
X96260714Y-47841666D01*
X96284523Y-47794047D01*
X96284523Y-47746428D01*
X96260714Y-47698809D01*
X96236904Y-47675000D01*
X96189285Y-47651190D01*
X96070238Y-47651190D01*
X95998809Y-47675000D01*
X95784523Y-48151190D02*
X95784523Y-47651190D01*
X95665476Y-47651190D01*
X95594047Y-47675000D01*
X95546428Y-47722619D01*
X95522619Y-47770238D01*
X95498809Y-47865476D01*
X95498809Y-47936904D01*
X95522619Y-48032142D01*
X95546428Y-48079761D01*
X95594047Y-48127380D01*
X95665476Y-48151190D01*
X95784523Y-48151190D01*
X99594047Y-48525000D02*
X99641666Y-48501190D01*
X99713095Y-48501190D01*
X99784523Y-48525000D01*
X99832142Y-48572619D01*
X99855952Y-48620238D01*
X99879761Y-48715476D01*
X99879761Y-48786904D01*
X99855952Y-48882142D01*
X99832142Y-48929761D01*
X99784523Y-48977380D01*
X99713095Y-49001190D01*
X99665476Y-49001190D01*
X99594047Y-48977380D01*
X99570238Y-48953571D01*
X99570238Y-48786904D01*
X99665476Y-48786904D01*
X99355952Y-49001190D02*
X99355952Y-48501190D01*
X99165476Y-48501190D01*
X99117857Y-48525000D01*
X99094047Y-48548809D01*
X99070238Y-48596428D01*
X99070238Y-48667857D01*
X99094047Y-48715476D01*
X99117857Y-48739285D01*
X99165476Y-48763095D01*
X99355952Y-48763095D01*
X98594047Y-49001190D02*
X98879761Y-49001190D01*
X98736904Y-49001190D02*
X98736904Y-48501190D01*
X98784523Y-48572619D01*
X98832142Y-48620238D01*
X98879761Y-48644047D01*
X97998809Y-48810714D02*
X97617857Y-48810714D01*
X97379761Y-49001190D02*
X97379761Y-48501190D01*
X97141666Y-49001190D02*
X97141666Y-48501190D01*
X97022619Y-48501190D01*
X96951190Y-48525000D01*
X96903571Y-48572619D01*
X96879761Y-48620238D01*
X96855952Y-48715476D01*
X96855952Y-48786904D01*
X96879761Y-48882142D01*
X96903571Y-48929761D01*
X96951190Y-48977380D01*
X97022619Y-49001190D01*
X97141666Y-49001190D01*
X96760714Y-49048809D02*
X96379761Y-49048809D01*
X96284523Y-48977380D02*
X96213095Y-49001190D01*
X96094047Y-49001190D01*
X96046428Y-48977380D01*
X96022619Y-48953571D01*
X95998809Y-48905952D01*
X95998809Y-48858333D01*
X96022619Y-48810714D01*
X96046428Y-48786904D01*
X96094047Y-48763095D01*
X96189285Y-48739285D01*
X96236904Y-48715476D01*
X96260714Y-48691666D01*
X96284523Y-48644047D01*
X96284523Y-48596428D01*
X96260714Y-48548809D01*
X96236904Y-48525000D01*
X96189285Y-48501190D01*
X96070238Y-48501190D01*
X95998809Y-48525000D01*
X95498809Y-48953571D02*
X95522619Y-48977380D01*
X95594047Y-49001190D01*
X95641666Y-49001190D01*
X95713095Y-48977380D01*
X95760714Y-48929761D01*
X95784523Y-48882142D01*
X95808333Y-48786904D01*
X95808333Y-48715476D01*
X95784523Y-48620238D01*
X95760714Y-48572619D01*
X95713095Y-48525000D01*
X95641666Y-48501190D01*
X95594047Y-48501190D01*
X95522619Y-48525000D01*
X95498809Y-48548809D01*
X99594047Y-49375000D02*
X99641666Y-49351190D01*
X99713095Y-49351190D01*
X99784523Y-49375000D01*
X99832142Y-49422619D01*
X99855952Y-49470238D01*
X99879761Y-49565476D01*
X99879761Y-49636904D01*
X99855952Y-49732142D01*
X99832142Y-49779761D01*
X99784523Y-49827380D01*
X99713095Y-49851190D01*
X99665476Y-49851190D01*
X99594047Y-49827380D01*
X99570238Y-49803571D01*
X99570238Y-49636904D01*
X99665476Y-49636904D01*
X99355952Y-49851190D02*
X99355952Y-49351190D01*
X99165476Y-49351190D01*
X99117857Y-49375000D01*
X99094047Y-49398809D01*
X99070238Y-49446428D01*
X99070238Y-49517857D01*
X99094047Y-49565476D01*
X99117857Y-49589285D01*
X99165476Y-49613095D01*
X99355952Y-49613095D01*
X98879761Y-49398809D02*
X98855952Y-49375000D01*
X98808333Y-49351190D01*
X98689285Y-49351190D01*
X98641666Y-49375000D01*
X98617857Y-49398809D01*
X98594047Y-49446428D01*
X98594047Y-49494047D01*
X98617857Y-49565476D01*
X98903571Y-49851190D01*
X98594047Y-49851190D01*
X97998809Y-49660714D02*
X97617857Y-49660714D01*
X97403571Y-49827380D02*
X97332142Y-49851190D01*
X97213095Y-49851190D01*
X97165476Y-49827380D01*
X97141666Y-49803571D01*
X97117857Y-49755952D01*
X97117857Y-49708333D01*
X97141666Y-49660714D01*
X97165476Y-49636904D01*
X97213095Y-49613095D01*
X97308333Y-49589285D01*
X97355952Y-49565476D01*
X97379761Y-49541666D01*
X97403571Y-49494047D01*
X97403571Y-49446428D01*
X97379761Y-49398809D01*
X97355952Y-49375000D01*
X97308333Y-49351190D01*
X97189285Y-49351190D01*
X97117857Y-49375000D01*
X96903571Y-49851190D02*
X96903571Y-49351190D01*
X96784523Y-49351190D01*
X96713095Y-49375000D01*
X96665476Y-49422619D01*
X96641666Y-49470238D01*
X96617857Y-49565476D01*
X96617857Y-49636904D01*
X96641666Y-49732142D01*
X96665476Y-49779761D01*
X96713095Y-49827380D01*
X96784523Y-49851190D01*
X96903571Y-49851190D01*
X96427380Y-49708333D02*
X96189285Y-49708333D01*
X96475000Y-49851190D02*
X96308333Y-49351190D01*
X96141666Y-49851190D01*
X99594047Y-50225000D02*
X99641666Y-50201190D01*
X99713095Y-50201190D01*
X99784523Y-50225000D01*
X99832142Y-50272619D01*
X99855952Y-50320238D01*
X99879761Y-50415476D01*
X99879761Y-50486904D01*
X99855952Y-50582142D01*
X99832142Y-50629761D01*
X99784523Y-50677380D01*
X99713095Y-50701190D01*
X99665476Y-50701190D01*
X99594047Y-50677380D01*
X99570238Y-50653571D01*
X99570238Y-50486904D01*
X99665476Y-50486904D01*
X99355952Y-50701190D02*
X99355952Y-50201190D01*
X99165476Y-50201190D01*
X99117857Y-50225000D01*
X99094047Y-50248809D01*
X99070238Y-50296428D01*
X99070238Y-50367857D01*
X99094047Y-50415476D01*
X99117857Y-50439285D01*
X99165476Y-50463095D01*
X99355952Y-50463095D01*
X98903571Y-50201190D02*
X98594047Y-50201190D01*
X98760714Y-50391666D01*
X98689285Y-50391666D01*
X98641666Y-50415476D01*
X98617857Y-50439285D01*
X98594047Y-50486904D01*
X98594047Y-50605952D01*
X98617857Y-50653571D01*
X98641666Y-50677380D01*
X98689285Y-50701190D01*
X98832142Y-50701190D01*
X98879761Y-50677380D01*
X98903571Y-50653571D01*
X97998809Y-50510714D02*
X97617857Y-50510714D01*
X97403571Y-50677380D02*
X97332142Y-50701190D01*
X97213095Y-50701190D01*
X97165476Y-50677380D01*
X97141666Y-50653571D01*
X97117857Y-50605952D01*
X97117857Y-50558333D01*
X97141666Y-50510714D01*
X97165476Y-50486904D01*
X97213095Y-50463095D01*
X97308333Y-50439285D01*
X97355952Y-50415476D01*
X97379761Y-50391666D01*
X97403571Y-50344047D01*
X97403571Y-50296428D01*
X97379761Y-50248809D01*
X97355952Y-50225000D01*
X97308333Y-50201190D01*
X97189285Y-50201190D01*
X97117857Y-50225000D01*
X96617857Y-50653571D02*
X96641666Y-50677380D01*
X96713095Y-50701190D01*
X96760714Y-50701190D01*
X96832142Y-50677380D01*
X96879761Y-50629761D01*
X96903571Y-50582142D01*
X96927380Y-50486904D01*
X96927380Y-50415476D01*
X96903571Y-50320238D01*
X96879761Y-50272619D01*
X96832142Y-50225000D01*
X96760714Y-50201190D01*
X96713095Y-50201190D01*
X96641666Y-50225000D01*
X96617857Y-50248809D01*
X96165476Y-50701190D02*
X96403571Y-50701190D01*
X96403571Y-50201190D01*
X99594047Y-51075000D02*
X99641666Y-51051190D01*
X99713095Y-51051190D01*
X99784523Y-51075000D01*
X99832142Y-51122619D01*
X99855952Y-51170238D01*
X99879761Y-51265476D01*
X99879761Y-51336904D01*
X99855952Y-51432142D01*
X99832142Y-51479761D01*
X99784523Y-51527380D01*
X99713095Y-51551190D01*
X99665476Y-51551190D01*
X99594047Y-51527380D01*
X99570238Y-51503571D01*
X99570238Y-51336904D01*
X99665476Y-51336904D01*
X99355952Y-51551190D02*
X99355952Y-51051190D01*
X99165476Y-51051190D01*
X99117857Y-51075000D01*
X99094047Y-51098809D01*
X99070238Y-51146428D01*
X99070238Y-51217857D01*
X99094047Y-51265476D01*
X99117857Y-51289285D01*
X99165476Y-51313095D01*
X99355952Y-51313095D01*
X98641666Y-51217857D02*
X98641666Y-51551190D01*
X98760714Y-51027380D02*
X98879761Y-51384523D01*
X98570238Y-51384523D01*
X97998809Y-51360714D02*
X97617857Y-51360714D01*
X97117857Y-51075000D02*
X97165476Y-51051190D01*
X97236904Y-51051190D01*
X97308333Y-51075000D01*
X97355952Y-51122619D01*
X97379761Y-51170238D01*
X97403571Y-51265476D01*
X97403571Y-51336904D01*
X97379761Y-51432142D01*
X97355952Y-51479761D01*
X97308333Y-51527380D01*
X97236904Y-51551190D01*
X97189285Y-51551190D01*
X97117857Y-51527380D01*
X97094047Y-51503571D01*
X97094047Y-51336904D01*
X97189285Y-51336904D01*
X96594047Y-51503571D02*
X96617857Y-51527380D01*
X96689285Y-51551190D01*
X96736904Y-51551190D01*
X96808333Y-51527380D01*
X96855952Y-51479761D01*
X96879761Y-51432142D01*
X96903571Y-51336904D01*
X96903571Y-51265476D01*
X96879761Y-51170238D01*
X96855952Y-51122619D01*
X96808333Y-51075000D01*
X96736904Y-51051190D01*
X96689285Y-51051190D01*
X96617857Y-51075000D01*
X96594047Y-51098809D01*
X96141666Y-51551190D02*
X96379761Y-51551190D01*
X96379761Y-51051190D01*
X95975000Y-51551190D02*
X95975000Y-51051190D01*
X95689285Y-51551190D02*
X95903571Y-51265476D01*
X95689285Y-51051190D02*
X95975000Y-51336904D01*
X95379761Y-51051190D02*
X95332142Y-51051190D01*
X95284523Y-51075000D01*
X95260714Y-51098809D01*
X95236904Y-51146428D01*
X95213095Y-51241666D01*
X95213095Y-51360714D01*
X95236904Y-51455952D01*
X95260714Y-51503571D01*
X95284523Y-51527380D01*
X95332142Y-51551190D01*
X95379761Y-51551190D01*
X95427380Y-51527380D01*
X95451190Y-51503571D01*
X95475000Y-51455952D01*
X95498809Y-51360714D01*
X95498809Y-51241666D01*
X95475000Y-51146428D01*
X95451190Y-51098809D01*
X95427380Y-51075000D01*
X95379761Y-51051190D01*
X99594047Y-51925000D02*
X99641666Y-51901190D01*
X99713095Y-51901190D01*
X99784523Y-51925000D01*
X99832142Y-51972619D01*
X99855952Y-52020238D01*
X99879761Y-52115476D01*
X99879761Y-52186904D01*
X99855952Y-52282142D01*
X99832142Y-52329761D01*
X99784523Y-52377380D01*
X99713095Y-52401190D01*
X99665476Y-52401190D01*
X99594047Y-52377380D01*
X99570238Y-52353571D01*
X99570238Y-52186904D01*
X99665476Y-52186904D01*
X99355952Y-52401190D02*
X99355952Y-51901190D01*
X99165476Y-51901190D01*
X99117857Y-51925000D01*
X99094047Y-51948809D01*
X99070238Y-51996428D01*
X99070238Y-52067857D01*
X99094047Y-52115476D01*
X99117857Y-52139285D01*
X99165476Y-52163095D01*
X99355952Y-52163095D01*
X98617857Y-51901190D02*
X98855952Y-51901190D01*
X98879761Y-52139285D01*
X98855952Y-52115476D01*
X98808333Y-52091666D01*
X98689285Y-52091666D01*
X98641666Y-52115476D01*
X98617857Y-52139285D01*
X98594047Y-52186904D01*
X98594047Y-52305952D01*
X98617857Y-52353571D01*
X98641666Y-52377380D01*
X98689285Y-52401190D01*
X98808333Y-52401190D01*
X98855952Y-52377380D01*
X98879761Y-52353571D01*
X97998809Y-52210714D02*
X97617857Y-52210714D01*
X97117857Y-51925000D02*
X97165476Y-51901190D01*
X97236904Y-51901190D01*
X97308333Y-51925000D01*
X97355952Y-51972619D01*
X97379761Y-52020238D01*
X97403571Y-52115476D01*
X97403571Y-52186904D01*
X97379761Y-52282142D01*
X97355952Y-52329761D01*
X97308333Y-52377380D01*
X97236904Y-52401190D01*
X97189285Y-52401190D01*
X97117857Y-52377380D01*
X97094047Y-52353571D01*
X97094047Y-52186904D01*
X97189285Y-52186904D01*
X96594047Y-52353571D02*
X96617857Y-52377380D01*
X96689285Y-52401190D01*
X96736904Y-52401190D01*
X96808333Y-52377380D01*
X96855952Y-52329761D01*
X96879761Y-52282142D01*
X96903571Y-52186904D01*
X96903571Y-52115476D01*
X96879761Y-52020238D01*
X96855952Y-51972619D01*
X96808333Y-51925000D01*
X96736904Y-51901190D01*
X96689285Y-51901190D01*
X96617857Y-51925000D01*
X96594047Y-51948809D01*
X96141666Y-52401190D02*
X96379761Y-52401190D01*
X96379761Y-51901190D01*
X95975000Y-52401190D02*
X95975000Y-51901190D01*
X95689285Y-52401190D02*
X95903571Y-52115476D01*
X95689285Y-51901190D02*
X95975000Y-52186904D01*
X95213095Y-52401190D02*
X95498809Y-52401190D01*
X95355952Y-52401190D02*
X95355952Y-51901190D01*
X95403571Y-51972619D01*
X95451190Y-52020238D01*
X95498809Y-52044047D01*
X99594047Y-52775000D02*
X99641666Y-52751190D01*
X99713095Y-52751190D01*
X99784523Y-52775000D01*
X99832142Y-52822619D01*
X99855952Y-52870238D01*
X99879761Y-52965476D01*
X99879761Y-53036904D01*
X99855952Y-53132142D01*
X99832142Y-53179761D01*
X99784523Y-53227380D01*
X99713095Y-53251190D01*
X99665476Y-53251190D01*
X99594047Y-53227380D01*
X99570238Y-53203571D01*
X99570238Y-53036904D01*
X99665476Y-53036904D01*
X99355952Y-53251190D02*
X99355952Y-52751190D01*
X99165476Y-52751190D01*
X99117857Y-52775000D01*
X99094047Y-52798809D01*
X99070238Y-52846428D01*
X99070238Y-52917857D01*
X99094047Y-52965476D01*
X99117857Y-52989285D01*
X99165476Y-53013095D01*
X99355952Y-53013095D01*
X98641666Y-52751190D02*
X98736904Y-52751190D01*
X98784523Y-52775000D01*
X98808333Y-52798809D01*
X98855952Y-52870238D01*
X98879761Y-52965476D01*
X98879761Y-53155952D01*
X98855952Y-53203571D01*
X98832142Y-53227380D01*
X98784523Y-53251190D01*
X98689285Y-53251190D01*
X98641666Y-53227380D01*
X98617857Y-53203571D01*
X98594047Y-53155952D01*
X98594047Y-53036904D01*
X98617857Y-52989285D01*
X98641666Y-52965476D01*
X98689285Y-52941666D01*
X98784523Y-52941666D01*
X98832142Y-52965476D01*
X98855952Y-52989285D01*
X98879761Y-53036904D01*
X97998809Y-53060714D02*
X97617857Y-53060714D01*
X97117857Y-52775000D02*
X97165476Y-52751190D01*
X97236904Y-52751190D01*
X97308333Y-52775000D01*
X97355952Y-52822619D01*
X97379761Y-52870238D01*
X97403571Y-52965476D01*
X97403571Y-53036904D01*
X97379761Y-53132142D01*
X97355952Y-53179761D01*
X97308333Y-53227380D01*
X97236904Y-53251190D01*
X97189285Y-53251190D01*
X97117857Y-53227380D01*
X97094047Y-53203571D01*
X97094047Y-53036904D01*
X97189285Y-53036904D01*
X96594047Y-53203571D02*
X96617857Y-53227380D01*
X96689285Y-53251190D01*
X96736904Y-53251190D01*
X96808333Y-53227380D01*
X96855952Y-53179761D01*
X96879761Y-53132142D01*
X96903571Y-53036904D01*
X96903571Y-52965476D01*
X96879761Y-52870238D01*
X96855952Y-52822619D01*
X96808333Y-52775000D01*
X96736904Y-52751190D01*
X96689285Y-52751190D01*
X96617857Y-52775000D01*
X96594047Y-52798809D01*
X96141666Y-53251190D02*
X96379761Y-53251190D01*
X96379761Y-52751190D01*
X95975000Y-53251190D02*
X95975000Y-52751190D01*
X95689285Y-53251190D02*
X95903571Y-52965476D01*
X95689285Y-52751190D02*
X95975000Y-53036904D01*
X95498809Y-52798809D02*
X95475000Y-52775000D01*
X95427380Y-52751190D01*
X95308333Y-52751190D01*
X95260714Y-52775000D01*
X95236904Y-52798809D01*
X95213095Y-52846428D01*
X95213095Y-52894047D01*
X95236904Y-52965476D01*
X95522619Y-53251190D01*
X95213095Y-53251190D01*
X99594047Y-53625000D02*
X99641666Y-53601190D01*
X99713095Y-53601190D01*
X99784523Y-53625000D01*
X99832142Y-53672619D01*
X99855952Y-53720238D01*
X99879761Y-53815476D01*
X99879761Y-53886904D01*
X99855952Y-53982142D01*
X99832142Y-54029761D01*
X99784523Y-54077380D01*
X99713095Y-54101190D01*
X99665476Y-54101190D01*
X99594047Y-54077380D01*
X99570238Y-54053571D01*
X99570238Y-53886904D01*
X99665476Y-53886904D01*
X99355952Y-54101190D02*
X99355952Y-53601190D01*
X99165476Y-53601190D01*
X99117857Y-53625000D01*
X99094047Y-53648809D01*
X99070238Y-53696428D01*
X99070238Y-53767857D01*
X99094047Y-53815476D01*
X99117857Y-53839285D01*
X99165476Y-53863095D01*
X99355952Y-53863095D01*
X98903571Y-53601190D02*
X98570238Y-53601190D01*
X98784523Y-54101190D01*
X97998809Y-53910714D02*
X97617857Y-53910714D01*
X97094047Y-54053571D02*
X97117857Y-54077380D01*
X97189285Y-54101190D01*
X97236904Y-54101190D01*
X97308333Y-54077380D01*
X97355952Y-54029761D01*
X97379761Y-53982142D01*
X97403571Y-53886904D01*
X97403571Y-53815476D01*
X97379761Y-53720238D01*
X97355952Y-53672619D01*
X97308333Y-53625000D01*
X97236904Y-53601190D01*
X97189285Y-53601190D01*
X97117857Y-53625000D01*
X97094047Y-53648809D01*
X96879761Y-53839285D02*
X96713095Y-53839285D01*
X96641666Y-54101190D02*
X96879761Y-54101190D01*
X96879761Y-53601190D01*
X96641666Y-53601190D01*
X96165476Y-54101190D02*
X96451190Y-54101190D01*
X96308333Y-54101190D02*
X96308333Y-53601190D01*
X96355952Y-53672619D01*
X96403571Y-53720238D01*
X96451190Y-53744047D01*
X99594047Y-54475000D02*
X99641666Y-54451190D01*
X99713095Y-54451190D01*
X99784523Y-54475000D01*
X99832142Y-54522619D01*
X99855952Y-54570238D01*
X99879761Y-54665476D01*
X99879761Y-54736904D01*
X99855952Y-54832142D01*
X99832142Y-54879761D01*
X99784523Y-54927380D01*
X99713095Y-54951190D01*
X99665476Y-54951190D01*
X99594047Y-54927380D01*
X99570238Y-54903571D01*
X99570238Y-54736904D01*
X99665476Y-54736904D01*
X99355952Y-54951190D02*
X99355952Y-54451190D01*
X99165476Y-54451190D01*
X99117857Y-54475000D01*
X99094047Y-54498809D01*
X99070238Y-54546428D01*
X99070238Y-54617857D01*
X99094047Y-54665476D01*
X99117857Y-54689285D01*
X99165476Y-54713095D01*
X99355952Y-54713095D01*
X98784523Y-54665476D02*
X98832142Y-54641666D01*
X98855952Y-54617857D01*
X98879761Y-54570238D01*
X98879761Y-54546428D01*
X98855952Y-54498809D01*
X98832142Y-54475000D01*
X98784523Y-54451190D01*
X98689285Y-54451190D01*
X98641666Y-54475000D01*
X98617857Y-54498809D01*
X98594047Y-54546428D01*
X98594047Y-54570238D01*
X98617857Y-54617857D01*
X98641666Y-54641666D01*
X98689285Y-54665476D01*
X98784523Y-54665476D01*
X98832142Y-54689285D01*
X98855952Y-54713095D01*
X98879761Y-54760714D01*
X98879761Y-54855952D01*
X98855952Y-54903571D01*
X98832142Y-54927380D01*
X98784523Y-54951190D01*
X98689285Y-54951190D01*
X98641666Y-54927380D01*
X98617857Y-54903571D01*
X98594047Y-54855952D01*
X98594047Y-54760714D01*
X98617857Y-54713095D01*
X98641666Y-54689285D01*
X98689285Y-54665476D01*
X97998809Y-54760714D02*
X97617857Y-54760714D01*
X97094047Y-54903571D02*
X97117857Y-54927380D01*
X97189285Y-54951190D01*
X97236904Y-54951190D01*
X97308333Y-54927380D01*
X97355952Y-54879761D01*
X97379761Y-54832142D01*
X97403571Y-54736904D01*
X97403571Y-54665476D01*
X97379761Y-54570238D01*
X97355952Y-54522619D01*
X97308333Y-54475000D01*
X97236904Y-54451190D01*
X97189285Y-54451190D01*
X97117857Y-54475000D01*
X97094047Y-54498809D01*
X96879761Y-54689285D02*
X96713095Y-54689285D01*
X96641666Y-54951190D02*
X96879761Y-54951190D01*
X96879761Y-54451190D01*
X96641666Y-54451190D01*
X96332142Y-54451190D02*
X96284523Y-54451190D01*
X96236904Y-54475000D01*
X96213095Y-54498809D01*
X96189285Y-54546428D01*
X96165476Y-54641666D01*
X96165476Y-54760714D01*
X96189285Y-54855952D01*
X96213095Y-54903571D01*
X96236904Y-54927380D01*
X96284523Y-54951190D01*
X96332142Y-54951190D01*
X96379761Y-54927380D01*
X96403571Y-54903571D01*
X96427380Y-54855952D01*
X96451190Y-54760714D01*
X96451190Y-54641666D01*
X96427380Y-54546428D01*
X96403571Y-54498809D01*
X96379761Y-54475000D01*
X96332142Y-54451190D01*
X99594047Y-55325000D02*
X99641666Y-55301190D01*
X99713095Y-55301190D01*
X99784523Y-55325000D01*
X99832142Y-55372619D01*
X99855952Y-55420238D01*
X99879761Y-55515476D01*
X99879761Y-55586904D01*
X99855952Y-55682142D01*
X99832142Y-55729761D01*
X99784523Y-55777380D01*
X99713095Y-55801190D01*
X99665476Y-55801190D01*
X99594047Y-55777380D01*
X99570238Y-55753571D01*
X99570238Y-55586904D01*
X99665476Y-55586904D01*
X99355952Y-55801190D02*
X99355952Y-55301190D01*
X99165476Y-55301190D01*
X99117857Y-55325000D01*
X99094047Y-55348809D01*
X99070238Y-55396428D01*
X99070238Y-55467857D01*
X99094047Y-55515476D01*
X99117857Y-55539285D01*
X99165476Y-55563095D01*
X99355952Y-55563095D01*
X98832142Y-55801190D02*
X98736904Y-55801190D01*
X98689285Y-55777380D01*
X98665476Y-55753571D01*
X98617857Y-55682142D01*
X98594047Y-55586904D01*
X98594047Y-55396428D01*
X98617857Y-55348809D01*
X98641666Y-55325000D01*
X98689285Y-55301190D01*
X98784523Y-55301190D01*
X98832142Y-55325000D01*
X98855952Y-55348809D01*
X98879761Y-55396428D01*
X98879761Y-55515476D01*
X98855952Y-55563095D01*
X98832142Y-55586904D01*
X98784523Y-55610714D01*
X98689285Y-55610714D01*
X98641666Y-55586904D01*
X98617857Y-55563095D01*
X98594047Y-55515476D01*
X97998809Y-55610714D02*
X97617857Y-55610714D01*
X97379761Y-55801190D02*
X97379761Y-55301190D01*
X97213095Y-55658333D01*
X97046428Y-55301190D01*
X97046428Y-55801190D01*
X96808333Y-55801190D02*
X96808333Y-55301190D01*
X96594047Y-55777380D02*
X96522619Y-55801190D01*
X96403571Y-55801190D01*
X96355952Y-55777380D01*
X96332142Y-55753571D01*
X96308333Y-55705952D01*
X96308333Y-55658333D01*
X96332142Y-55610714D01*
X96355952Y-55586904D01*
X96403571Y-55563095D01*
X96498809Y-55539285D01*
X96546428Y-55515476D01*
X96570238Y-55491666D01*
X96594047Y-55444047D01*
X96594047Y-55396428D01*
X96570238Y-55348809D01*
X96546428Y-55325000D01*
X96498809Y-55301190D01*
X96379761Y-55301190D01*
X96308333Y-55325000D01*
X95998809Y-55301190D02*
X95903571Y-55301190D01*
X95855952Y-55325000D01*
X95808333Y-55372619D01*
X95784523Y-55467857D01*
X95784523Y-55634523D01*
X95808333Y-55729761D01*
X95855952Y-55777380D01*
X95903571Y-55801190D01*
X95998809Y-55801190D01*
X96046428Y-55777380D01*
X96094047Y-55729761D01*
X96117857Y-55634523D01*
X96117857Y-55467857D01*
X96094047Y-55372619D01*
X96046428Y-55325000D01*
X95998809Y-55301190D01*
X95475000Y-55301190D02*
X95427380Y-55301190D01*
X95379761Y-55325000D01*
X95355952Y-55348809D01*
X95332142Y-55396428D01*
X95308333Y-55491666D01*
X95308333Y-55610714D01*
X95332142Y-55705952D01*
X95355952Y-55753571D01*
X95379761Y-55777380D01*
X95427380Y-55801190D01*
X95475000Y-55801190D01*
X95522619Y-55777380D01*
X95546428Y-55753571D01*
X95570238Y-55705952D01*
X95594047Y-55610714D01*
X95594047Y-55491666D01*
X95570238Y-55396428D01*
X95546428Y-55348809D01*
X95522619Y-55325000D01*
X95475000Y-55301190D01*
X99594047Y-56175000D02*
X99641666Y-56151190D01*
X99713095Y-56151190D01*
X99784523Y-56175000D01*
X99832142Y-56222619D01*
X99855952Y-56270238D01*
X99879761Y-56365476D01*
X99879761Y-56436904D01*
X99855952Y-56532142D01*
X99832142Y-56579761D01*
X99784523Y-56627380D01*
X99713095Y-56651190D01*
X99665476Y-56651190D01*
X99594047Y-56627380D01*
X99570238Y-56603571D01*
X99570238Y-56436904D01*
X99665476Y-56436904D01*
X99355952Y-56651190D02*
X99355952Y-56151190D01*
X99165476Y-56151190D01*
X99117857Y-56175000D01*
X99094047Y-56198809D01*
X99070238Y-56246428D01*
X99070238Y-56317857D01*
X99094047Y-56365476D01*
X99117857Y-56389285D01*
X99165476Y-56413095D01*
X99355952Y-56413095D01*
X98594047Y-56651190D02*
X98879761Y-56651190D01*
X98736904Y-56651190D02*
X98736904Y-56151190D01*
X98784523Y-56222619D01*
X98832142Y-56270238D01*
X98879761Y-56294047D01*
X98284523Y-56151190D02*
X98236904Y-56151190D01*
X98189285Y-56175000D01*
X98165476Y-56198809D01*
X98141666Y-56246428D01*
X98117857Y-56341666D01*
X98117857Y-56460714D01*
X98141666Y-56555952D01*
X98165476Y-56603571D01*
X98189285Y-56627380D01*
X98236904Y-56651190D01*
X98284523Y-56651190D01*
X98332142Y-56627380D01*
X98355952Y-56603571D01*
X98379761Y-56555952D01*
X98403571Y-56460714D01*
X98403571Y-56341666D01*
X98379761Y-56246428D01*
X98355952Y-56198809D01*
X98332142Y-56175000D01*
X98284523Y-56151190D01*
X97903571Y-56460714D02*
X97522619Y-56460714D01*
X97284523Y-56651190D02*
X97284523Y-56151190D01*
X97117857Y-56508333D01*
X96951190Y-56151190D01*
X96951190Y-56651190D01*
X96617857Y-56151190D02*
X96522619Y-56151190D01*
X96475000Y-56175000D01*
X96427380Y-56222619D01*
X96403571Y-56317857D01*
X96403571Y-56484523D01*
X96427380Y-56579761D01*
X96475000Y-56627380D01*
X96522619Y-56651190D01*
X96617857Y-56651190D01*
X96665476Y-56627380D01*
X96713095Y-56579761D01*
X96736904Y-56484523D01*
X96736904Y-56317857D01*
X96713095Y-56222619D01*
X96665476Y-56175000D01*
X96617857Y-56151190D01*
X96213095Y-56627380D02*
X96141666Y-56651190D01*
X96022619Y-56651190D01*
X95975000Y-56627380D01*
X95951190Y-56603571D01*
X95927380Y-56555952D01*
X95927380Y-56508333D01*
X95951190Y-56460714D01*
X95975000Y-56436904D01*
X96022619Y-56413095D01*
X96117857Y-56389285D01*
X96165476Y-56365476D01*
X96189285Y-56341666D01*
X96213095Y-56294047D01*
X96213095Y-56246428D01*
X96189285Y-56198809D01*
X96165476Y-56175000D01*
X96117857Y-56151190D01*
X95998809Y-56151190D01*
X95927380Y-56175000D01*
X95713095Y-56651190D02*
X95713095Y-56151190D01*
X95379761Y-56151190D02*
X95332142Y-56151190D01*
X95284523Y-56175000D01*
X95260714Y-56198809D01*
X95236904Y-56246428D01*
X95213095Y-56341666D01*
X95213095Y-56460714D01*
X95236904Y-56555952D01*
X95260714Y-56603571D01*
X95284523Y-56627380D01*
X95332142Y-56651190D01*
X95379761Y-56651190D01*
X95427380Y-56627380D01*
X95451190Y-56603571D01*
X95475000Y-56555952D01*
X95498809Y-56460714D01*
X95498809Y-56341666D01*
X95475000Y-56246428D01*
X95451190Y-56198809D01*
X95427380Y-56175000D01*
X95379761Y-56151190D01*
X99594047Y-57025000D02*
X99641666Y-57001190D01*
X99713095Y-57001190D01*
X99784523Y-57025000D01*
X99832142Y-57072619D01*
X99855952Y-57120238D01*
X99879761Y-57215476D01*
X99879761Y-57286904D01*
X99855952Y-57382142D01*
X99832142Y-57429761D01*
X99784523Y-57477380D01*
X99713095Y-57501190D01*
X99665476Y-57501190D01*
X99594047Y-57477380D01*
X99570238Y-57453571D01*
X99570238Y-57286904D01*
X99665476Y-57286904D01*
X99355952Y-57501190D02*
X99355952Y-57001190D01*
X99165476Y-57001190D01*
X99117857Y-57025000D01*
X99094047Y-57048809D01*
X99070238Y-57096428D01*
X99070238Y-57167857D01*
X99094047Y-57215476D01*
X99117857Y-57239285D01*
X99165476Y-57263095D01*
X99355952Y-57263095D01*
X98594047Y-57501190D02*
X98879761Y-57501190D01*
X98736904Y-57501190D02*
X98736904Y-57001190D01*
X98784523Y-57072619D01*
X98832142Y-57120238D01*
X98879761Y-57144047D01*
X98117857Y-57501190D02*
X98403571Y-57501190D01*
X98260714Y-57501190D02*
X98260714Y-57001190D01*
X98308333Y-57072619D01*
X98355952Y-57120238D01*
X98403571Y-57144047D01*
X97903571Y-57310714D02*
X97522619Y-57310714D01*
X97308333Y-57477380D02*
X97236904Y-57501190D01*
X97117857Y-57501190D01*
X97070238Y-57477380D01*
X97046428Y-57453571D01*
X97022619Y-57405952D01*
X97022619Y-57358333D01*
X97046428Y-57310714D01*
X97070238Y-57286904D01*
X97117857Y-57263095D01*
X97213095Y-57239285D01*
X97260714Y-57215476D01*
X97284523Y-57191666D01*
X97308333Y-57144047D01*
X97308333Y-57096428D01*
X97284523Y-57048809D01*
X97260714Y-57025000D01*
X97213095Y-57001190D01*
X97094047Y-57001190D01*
X97022619Y-57025000D01*
X96522619Y-57453571D02*
X96546428Y-57477380D01*
X96617857Y-57501190D01*
X96665476Y-57501190D01*
X96736904Y-57477380D01*
X96784523Y-57429761D01*
X96808333Y-57382142D01*
X96832142Y-57286904D01*
X96832142Y-57215476D01*
X96808333Y-57120238D01*
X96784523Y-57072619D01*
X96736904Y-57025000D01*
X96665476Y-57001190D01*
X96617857Y-57001190D01*
X96546428Y-57025000D01*
X96522619Y-57048809D01*
X96070238Y-57501190D02*
X96308333Y-57501190D01*
X96308333Y-57001190D01*
X95903571Y-57501190D02*
X95903571Y-57001190D01*
X95617857Y-57501190D02*
X95832142Y-57215476D01*
X95617857Y-57001190D02*
X95903571Y-57286904D01*
X95308333Y-57001190D02*
X95260714Y-57001190D01*
X95213095Y-57025000D01*
X95189285Y-57048809D01*
X95165476Y-57096428D01*
X95141666Y-57191666D01*
X95141666Y-57310714D01*
X95165476Y-57405952D01*
X95189285Y-57453571D01*
X95213095Y-57477380D01*
X95260714Y-57501190D01*
X95308333Y-57501190D01*
X95355952Y-57477380D01*
X95379761Y-57453571D01*
X95403571Y-57405952D01*
X95427380Y-57310714D01*
X95427380Y-57191666D01*
X95403571Y-57096428D01*
X95379761Y-57048809D01*
X95355952Y-57025000D01*
X95308333Y-57001190D01*
X99594047Y-57875000D02*
X99641666Y-57851190D01*
X99713095Y-57851190D01*
X99784523Y-57875000D01*
X99832142Y-57922619D01*
X99855952Y-57970238D01*
X99879761Y-58065476D01*
X99879761Y-58136904D01*
X99855952Y-58232142D01*
X99832142Y-58279761D01*
X99784523Y-58327380D01*
X99713095Y-58351190D01*
X99665476Y-58351190D01*
X99594047Y-58327380D01*
X99570238Y-58303571D01*
X99570238Y-58136904D01*
X99665476Y-58136904D01*
X99355952Y-58351190D02*
X99355952Y-57851190D01*
X99165476Y-57851190D01*
X99117857Y-57875000D01*
X99094047Y-57898809D01*
X99070238Y-57946428D01*
X99070238Y-58017857D01*
X99094047Y-58065476D01*
X99117857Y-58089285D01*
X99165476Y-58113095D01*
X99355952Y-58113095D01*
X98594047Y-58351190D02*
X98879761Y-58351190D01*
X98736904Y-58351190D02*
X98736904Y-57851190D01*
X98784523Y-57922619D01*
X98832142Y-57970238D01*
X98879761Y-57994047D01*
X98403571Y-57898809D02*
X98379761Y-57875000D01*
X98332142Y-57851190D01*
X98213095Y-57851190D01*
X98165476Y-57875000D01*
X98141666Y-57898809D01*
X98117857Y-57946428D01*
X98117857Y-57994047D01*
X98141666Y-58065476D01*
X98427380Y-58351190D01*
X98117857Y-58351190D01*
X97903571Y-58160714D02*
X97522619Y-58160714D01*
X97284523Y-58351190D02*
X97284523Y-57851190D01*
X97094047Y-57851190D01*
X97046428Y-57875000D01*
X97022619Y-57898809D01*
X96998809Y-57946428D01*
X96998809Y-58017857D01*
X97022619Y-58065476D01*
X97046428Y-58089285D01*
X97094047Y-58113095D01*
X97284523Y-58113095D01*
X96832142Y-57851190D02*
X96713095Y-58351190D01*
X96617857Y-57994047D01*
X96522619Y-58351190D01*
X96403571Y-57851190D01*
X96213095Y-58351190D02*
X96213095Y-57851190D01*
X96046428Y-58208333D01*
X95879761Y-57851190D01*
X95879761Y-58351190D01*
X95546428Y-57851190D02*
X95498809Y-57851190D01*
X95451190Y-57875000D01*
X95427380Y-57898809D01*
X95403571Y-57946428D01*
X95379761Y-58041666D01*
X95379761Y-58160714D01*
X95403571Y-58255952D01*
X95427380Y-58303571D01*
X95451190Y-58327380D01*
X95498809Y-58351190D01*
X95546428Y-58351190D01*
X95594047Y-58327380D01*
X95617857Y-58303571D01*
X95641666Y-58255952D01*
X95665476Y-58160714D01*
X95665476Y-58041666D01*
X95641666Y-57946428D01*
X95617857Y-57898809D01*
X95594047Y-57875000D01*
X95546428Y-57851190D01*
X99594047Y-58725000D02*
X99641666Y-58701190D01*
X99713095Y-58701190D01*
X99784523Y-58725000D01*
X99832142Y-58772619D01*
X99855952Y-58820238D01*
X99879761Y-58915476D01*
X99879761Y-58986904D01*
X99855952Y-59082142D01*
X99832142Y-59129761D01*
X99784523Y-59177380D01*
X99713095Y-59201190D01*
X99665476Y-59201190D01*
X99594047Y-59177380D01*
X99570238Y-59153571D01*
X99570238Y-58986904D01*
X99665476Y-58986904D01*
X99355952Y-59201190D02*
X99355952Y-58701190D01*
X99165476Y-58701190D01*
X99117857Y-58725000D01*
X99094047Y-58748809D01*
X99070238Y-58796428D01*
X99070238Y-58867857D01*
X99094047Y-58915476D01*
X99117857Y-58939285D01*
X99165476Y-58963095D01*
X99355952Y-58963095D01*
X98594047Y-59201190D02*
X98879761Y-59201190D01*
X98736904Y-59201190D02*
X98736904Y-58701190D01*
X98784523Y-58772619D01*
X98832142Y-58820238D01*
X98879761Y-58844047D01*
X98427380Y-58701190D02*
X98117857Y-58701190D01*
X98284523Y-58891666D01*
X98213095Y-58891666D01*
X98165476Y-58915476D01*
X98141666Y-58939285D01*
X98117857Y-58986904D01*
X98117857Y-59105952D01*
X98141666Y-59153571D01*
X98165476Y-59177380D01*
X98213095Y-59201190D01*
X98355952Y-59201190D01*
X98403571Y-59177380D01*
X98427380Y-59153571D01*
X97903571Y-59010714D02*
X97522619Y-59010714D01*
X97284523Y-59201190D02*
X97284523Y-58701190D01*
X97094047Y-58701190D01*
X97046428Y-58725000D01*
X97022619Y-58748809D01*
X96998809Y-58796428D01*
X96998809Y-58867857D01*
X97022619Y-58915476D01*
X97046428Y-58939285D01*
X97094047Y-58963095D01*
X97284523Y-58963095D01*
X96832142Y-58701190D02*
X96713095Y-59201190D01*
X96617857Y-58844047D01*
X96522619Y-59201190D01*
X96403571Y-58701190D01*
X96213095Y-59201190D02*
X96213095Y-58701190D01*
X96046428Y-59058333D01*
X95879761Y-58701190D01*
X95879761Y-59201190D01*
X95379761Y-59201190D02*
X95665476Y-59201190D01*
X95522619Y-59201190D02*
X95522619Y-58701190D01*
X95570238Y-58772619D01*
X95617857Y-58820238D01*
X95665476Y-58844047D01*
X99594047Y-59575000D02*
X99641666Y-59551190D01*
X99713095Y-59551190D01*
X99784523Y-59575000D01*
X99832142Y-59622619D01*
X99855952Y-59670238D01*
X99879761Y-59765476D01*
X99879761Y-59836904D01*
X99855952Y-59932142D01*
X99832142Y-59979761D01*
X99784523Y-60027380D01*
X99713095Y-60051190D01*
X99665476Y-60051190D01*
X99594047Y-60027380D01*
X99570238Y-60003571D01*
X99570238Y-59836904D01*
X99665476Y-59836904D01*
X99355952Y-60051190D02*
X99355952Y-59551190D01*
X99165476Y-59551190D01*
X99117857Y-59575000D01*
X99094047Y-59598809D01*
X99070238Y-59646428D01*
X99070238Y-59717857D01*
X99094047Y-59765476D01*
X99117857Y-59789285D01*
X99165476Y-59813095D01*
X99355952Y-59813095D01*
X98594047Y-60051190D02*
X98879761Y-60051190D01*
X98736904Y-60051190D02*
X98736904Y-59551190D01*
X98784523Y-59622619D01*
X98832142Y-59670238D01*
X98879761Y-59694047D01*
X98165476Y-59717857D02*
X98165476Y-60051190D01*
X98284523Y-59527380D02*
X98403571Y-59884523D01*
X98094047Y-59884523D01*
X97903571Y-59860714D02*
X97522619Y-59860714D01*
X97355952Y-59551190D02*
X97070238Y-59551190D01*
X97213095Y-60051190D02*
X97213095Y-59551190D01*
X96951190Y-59551190D02*
X96617857Y-60051190D01*
X96617857Y-59551190D02*
X96951190Y-60051190D01*
X96427380Y-60051190D02*
X96427380Y-59551190D01*
X96308333Y-59551190D01*
X96236904Y-59575000D01*
X96189285Y-59622619D01*
X96165476Y-59670238D01*
X96141666Y-59765476D01*
X96141666Y-59836904D01*
X96165476Y-59932142D01*
X96189285Y-59979761D01*
X96236904Y-60027380D01*
X96308333Y-60051190D01*
X96427380Y-60051190D01*
X99594047Y-60425000D02*
X99641666Y-60401190D01*
X99713095Y-60401190D01*
X99784523Y-60425000D01*
X99832142Y-60472619D01*
X99855952Y-60520238D01*
X99879761Y-60615476D01*
X99879761Y-60686904D01*
X99855952Y-60782142D01*
X99832142Y-60829761D01*
X99784523Y-60877380D01*
X99713095Y-60901190D01*
X99665476Y-60901190D01*
X99594047Y-60877380D01*
X99570238Y-60853571D01*
X99570238Y-60686904D01*
X99665476Y-60686904D01*
X99355952Y-60901190D02*
X99355952Y-60401190D01*
X99165476Y-60401190D01*
X99117857Y-60425000D01*
X99094047Y-60448809D01*
X99070238Y-60496428D01*
X99070238Y-60567857D01*
X99094047Y-60615476D01*
X99117857Y-60639285D01*
X99165476Y-60663095D01*
X99355952Y-60663095D01*
X98594047Y-60901190D02*
X98879761Y-60901190D01*
X98736904Y-60901190D02*
X98736904Y-60401190D01*
X98784523Y-60472619D01*
X98832142Y-60520238D01*
X98879761Y-60544047D01*
X98141666Y-60401190D02*
X98379761Y-60401190D01*
X98403571Y-60639285D01*
X98379761Y-60615476D01*
X98332142Y-60591666D01*
X98213095Y-60591666D01*
X98165476Y-60615476D01*
X98141666Y-60639285D01*
X98117857Y-60686904D01*
X98117857Y-60805952D01*
X98141666Y-60853571D01*
X98165476Y-60877380D01*
X98213095Y-60901190D01*
X98332142Y-60901190D01*
X98379761Y-60877380D01*
X98403571Y-60853571D01*
X97903571Y-60710714D02*
X97522619Y-60710714D01*
X96998809Y-60901190D02*
X97165476Y-60663095D01*
X97284523Y-60901190D02*
X97284523Y-60401190D01*
X97094047Y-60401190D01*
X97046428Y-60425000D01*
X97022619Y-60448809D01*
X96998809Y-60496428D01*
X96998809Y-60567857D01*
X97022619Y-60615476D01*
X97046428Y-60639285D01*
X97094047Y-60663095D01*
X97284523Y-60663095D01*
X96832142Y-60401190D02*
X96498809Y-60901190D01*
X96498809Y-60401190D02*
X96832142Y-60901190D01*
X96308333Y-60901190D02*
X96308333Y-60401190D01*
X96189285Y-60401190D01*
X96117857Y-60425000D01*
X96070238Y-60472619D01*
X96046428Y-60520238D01*
X96022619Y-60615476D01*
X96022619Y-60686904D01*
X96046428Y-60782142D01*
X96070238Y-60829761D01*
X96117857Y-60877380D01*
X96189285Y-60901190D01*
X96308333Y-60901190D01*
X99594047Y-61275000D02*
X99641666Y-61251190D01*
X99713095Y-61251190D01*
X99784523Y-61275000D01*
X99832142Y-61322619D01*
X99855952Y-61370238D01*
X99879761Y-61465476D01*
X99879761Y-61536904D01*
X99855952Y-61632142D01*
X99832142Y-61679761D01*
X99784523Y-61727380D01*
X99713095Y-61751190D01*
X99665476Y-61751190D01*
X99594047Y-61727380D01*
X99570238Y-61703571D01*
X99570238Y-61536904D01*
X99665476Y-61536904D01*
X99355952Y-61751190D02*
X99355952Y-61251190D01*
X99165476Y-61251190D01*
X99117857Y-61275000D01*
X99094047Y-61298809D01*
X99070238Y-61346428D01*
X99070238Y-61417857D01*
X99094047Y-61465476D01*
X99117857Y-61489285D01*
X99165476Y-61513095D01*
X99355952Y-61513095D01*
X98594047Y-61751190D02*
X98879761Y-61751190D01*
X98736904Y-61751190D02*
X98736904Y-61251190D01*
X98784523Y-61322619D01*
X98832142Y-61370238D01*
X98879761Y-61394047D01*
X98308333Y-61465476D02*
X98355952Y-61441666D01*
X98379761Y-61417857D01*
X98403571Y-61370238D01*
X98403571Y-61346428D01*
X98379761Y-61298809D01*
X98355952Y-61275000D01*
X98308333Y-61251190D01*
X98213095Y-61251190D01*
X98165476Y-61275000D01*
X98141666Y-61298809D01*
X98117857Y-61346428D01*
X98117857Y-61370238D01*
X98141666Y-61417857D01*
X98165476Y-61441666D01*
X98213095Y-61465476D01*
X98308333Y-61465476D01*
X98355952Y-61489285D01*
X98379761Y-61513095D01*
X98403571Y-61560714D01*
X98403571Y-61655952D01*
X98379761Y-61703571D01*
X98355952Y-61727380D01*
X98308333Y-61751190D01*
X98213095Y-61751190D01*
X98165476Y-61727380D01*
X98141666Y-61703571D01*
X98117857Y-61655952D01*
X98117857Y-61560714D01*
X98141666Y-61513095D01*
X98165476Y-61489285D01*
X98213095Y-61465476D01*
X97903571Y-61560714D02*
X97522619Y-61560714D01*
X97284523Y-61751190D02*
X97284523Y-61251190D01*
X97094047Y-61251190D01*
X97046428Y-61275000D01*
X97022619Y-61298809D01*
X96998809Y-61346428D01*
X96998809Y-61417857D01*
X97022619Y-61465476D01*
X97046428Y-61489285D01*
X97094047Y-61513095D01*
X97284523Y-61513095D01*
X96832142Y-61251190D02*
X96713095Y-61751190D01*
X96617857Y-61394047D01*
X96522619Y-61751190D01*
X96403571Y-61251190D01*
X96213095Y-61751190D02*
X96213095Y-61251190D01*
X96046428Y-61608333D01*
X95879761Y-61251190D01*
X95879761Y-61751190D01*
X95546428Y-61251190D02*
X95498809Y-61251190D01*
X95451190Y-61275000D01*
X95427380Y-61298809D01*
X95403571Y-61346428D01*
X95379761Y-61441666D01*
X95379761Y-61560714D01*
X95403571Y-61655952D01*
X95427380Y-61703571D01*
X95451190Y-61727380D01*
X95498809Y-61751190D01*
X95546428Y-61751190D01*
X95594047Y-61727380D01*
X95617857Y-61703571D01*
X95641666Y-61655952D01*
X95665476Y-61560714D01*
X95665476Y-61441666D01*
X95641666Y-61346428D01*
X95617857Y-61298809D01*
X95594047Y-61275000D01*
X95546428Y-61251190D01*
X99594047Y-62125000D02*
X99641666Y-62101190D01*
X99713095Y-62101190D01*
X99784523Y-62125000D01*
X99832142Y-62172619D01*
X99855952Y-62220238D01*
X99879761Y-62315476D01*
X99879761Y-62386904D01*
X99855952Y-62482142D01*
X99832142Y-62529761D01*
X99784523Y-62577380D01*
X99713095Y-62601190D01*
X99665476Y-62601190D01*
X99594047Y-62577380D01*
X99570238Y-62553571D01*
X99570238Y-62386904D01*
X99665476Y-62386904D01*
X99355952Y-62601190D02*
X99355952Y-62101190D01*
X99165476Y-62101190D01*
X99117857Y-62125000D01*
X99094047Y-62148809D01*
X99070238Y-62196428D01*
X99070238Y-62267857D01*
X99094047Y-62315476D01*
X99117857Y-62339285D01*
X99165476Y-62363095D01*
X99355952Y-62363095D01*
X98594047Y-62601190D02*
X98879761Y-62601190D01*
X98736904Y-62601190D02*
X98736904Y-62101190D01*
X98784523Y-62172619D01*
X98832142Y-62220238D01*
X98879761Y-62244047D01*
X98355952Y-62601190D02*
X98260714Y-62601190D01*
X98213095Y-62577380D01*
X98189285Y-62553571D01*
X98141666Y-62482142D01*
X98117857Y-62386904D01*
X98117857Y-62196428D01*
X98141666Y-62148809D01*
X98165476Y-62125000D01*
X98213095Y-62101190D01*
X98308333Y-62101190D01*
X98355952Y-62125000D01*
X98379761Y-62148809D01*
X98403571Y-62196428D01*
X98403571Y-62315476D01*
X98379761Y-62363095D01*
X98355952Y-62386904D01*
X98308333Y-62410714D01*
X98213095Y-62410714D01*
X98165476Y-62386904D01*
X98141666Y-62363095D01*
X98117857Y-62315476D01*
X97903571Y-62410714D02*
X97522619Y-62410714D01*
X97284523Y-62601190D02*
X97284523Y-62101190D01*
X97117857Y-62458333D01*
X96951190Y-62101190D01*
X96951190Y-62601190D01*
X96713095Y-62601190D02*
X96713095Y-62101190D01*
X96498809Y-62577380D02*
X96427380Y-62601190D01*
X96308333Y-62601190D01*
X96260714Y-62577380D01*
X96236904Y-62553571D01*
X96213095Y-62505952D01*
X96213095Y-62458333D01*
X96236904Y-62410714D01*
X96260714Y-62386904D01*
X96308333Y-62363095D01*
X96403571Y-62339285D01*
X96451190Y-62315476D01*
X96475000Y-62291666D01*
X96498809Y-62244047D01*
X96498809Y-62196428D01*
X96475000Y-62148809D01*
X96451190Y-62125000D01*
X96403571Y-62101190D01*
X96284523Y-62101190D01*
X96213095Y-62125000D01*
X95903571Y-62101190D02*
X95808333Y-62101190D01*
X95760714Y-62125000D01*
X95713095Y-62172619D01*
X95689285Y-62267857D01*
X95689285Y-62434523D01*
X95713095Y-62529761D01*
X95760714Y-62577380D01*
X95808333Y-62601190D01*
X95903571Y-62601190D01*
X95951190Y-62577380D01*
X95998809Y-62529761D01*
X96022619Y-62434523D01*
X96022619Y-62267857D01*
X95998809Y-62172619D01*
X95951190Y-62125000D01*
X95903571Y-62101190D01*
X95213095Y-62601190D02*
X95498809Y-62601190D01*
X95355952Y-62601190D02*
X95355952Y-62101190D01*
X95403571Y-62172619D01*
X95451190Y-62220238D01*
X95498809Y-62244047D01*
X99594047Y-62975000D02*
X99641666Y-62951190D01*
X99713095Y-62951190D01*
X99784523Y-62975000D01*
X99832142Y-63022619D01*
X99855952Y-63070238D01*
X99879761Y-63165476D01*
X99879761Y-63236904D01*
X99855952Y-63332142D01*
X99832142Y-63379761D01*
X99784523Y-63427380D01*
X99713095Y-63451190D01*
X99665476Y-63451190D01*
X99594047Y-63427380D01*
X99570238Y-63403571D01*
X99570238Y-63236904D01*
X99665476Y-63236904D01*
X99355952Y-63451190D02*
X99355952Y-62951190D01*
X99165476Y-62951190D01*
X99117857Y-62975000D01*
X99094047Y-62998809D01*
X99070238Y-63046428D01*
X99070238Y-63117857D01*
X99094047Y-63165476D01*
X99117857Y-63189285D01*
X99165476Y-63213095D01*
X99355952Y-63213095D01*
X98879761Y-62998809D02*
X98855952Y-62975000D01*
X98808333Y-62951190D01*
X98689285Y-62951190D01*
X98641666Y-62975000D01*
X98617857Y-62998809D01*
X98594047Y-63046428D01*
X98594047Y-63094047D01*
X98617857Y-63165476D01*
X98903571Y-63451190D01*
X98594047Y-63451190D01*
X98284523Y-62951190D02*
X98236904Y-62951190D01*
X98189285Y-62975000D01*
X98165476Y-62998809D01*
X98141666Y-63046428D01*
X98117857Y-63141666D01*
X98117857Y-63260714D01*
X98141666Y-63355952D01*
X98165476Y-63403571D01*
X98189285Y-63427380D01*
X98236904Y-63451190D01*
X98284523Y-63451190D01*
X98332142Y-63427380D01*
X98355952Y-63403571D01*
X98379761Y-63355952D01*
X98403571Y-63260714D01*
X98403571Y-63141666D01*
X98379761Y-63046428D01*
X98355952Y-62998809D01*
X98332142Y-62975000D01*
X98284523Y-62951190D01*
X97903571Y-63260714D02*
X97522619Y-63260714D01*
X97284523Y-63451190D02*
X97284523Y-62951190D01*
X97117857Y-63308333D01*
X96951190Y-62951190D01*
X96951190Y-63451190D01*
X96617857Y-62951190D02*
X96522619Y-62951190D01*
X96475000Y-62975000D01*
X96427380Y-63022619D01*
X96403571Y-63117857D01*
X96403571Y-63284523D01*
X96427380Y-63379761D01*
X96475000Y-63427380D01*
X96522619Y-63451190D01*
X96617857Y-63451190D01*
X96665476Y-63427380D01*
X96713095Y-63379761D01*
X96736904Y-63284523D01*
X96736904Y-63117857D01*
X96713095Y-63022619D01*
X96665476Y-62975000D01*
X96617857Y-62951190D01*
X96213095Y-63427380D02*
X96141666Y-63451190D01*
X96022619Y-63451190D01*
X95975000Y-63427380D01*
X95951190Y-63403571D01*
X95927380Y-63355952D01*
X95927380Y-63308333D01*
X95951190Y-63260714D01*
X95975000Y-63236904D01*
X96022619Y-63213095D01*
X96117857Y-63189285D01*
X96165476Y-63165476D01*
X96189285Y-63141666D01*
X96213095Y-63094047D01*
X96213095Y-63046428D01*
X96189285Y-62998809D01*
X96165476Y-62975000D01*
X96117857Y-62951190D01*
X95998809Y-62951190D01*
X95927380Y-62975000D01*
X95713095Y-63451190D02*
X95713095Y-62951190D01*
X95213095Y-63451190D02*
X95498809Y-63451190D01*
X95355952Y-63451190D02*
X95355952Y-62951190D01*
X95403571Y-63022619D01*
X95451190Y-63070238D01*
X95498809Y-63094047D01*
X99594047Y-63825000D02*
X99641666Y-63801190D01*
X99713095Y-63801190D01*
X99784523Y-63825000D01*
X99832142Y-63872619D01*
X99855952Y-63920238D01*
X99879761Y-64015476D01*
X99879761Y-64086904D01*
X99855952Y-64182142D01*
X99832142Y-64229761D01*
X99784523Y-64277380D01*
X99713095Y-64301190D01*
X99665476Y-64301190D01*
X99594047Y-64277380D01*
X99570238Y-64253571D01*
X99570238Y-64086904D01*
X99665476Y-64086904D01*
X99355952Y-64301190D02*
X99355952Y-63801190D01*
X99165476Y-63801190D01*
X99117857Y-63825000D01*
X99094047Y-63848809D01*
X99070238Y-63896428D01*
X99070238Y-63967857D01*
X99094047Y-64015476D01*
X99117857Y-64039285D01*
X99165476Y-64063095D01*
X99355952Y-64063095D01*
X98879761Y-63848809D02*
X98855952Y-63825000D01*
X98808333Y-63801190D01*
X98689285Y-63801190D01*
X98641666Y-63825000D01*
X98617857Y-63848809D01*
X98594047Y-63896428D01*
X98594047Y-63944047D01*
X98617857Y-64015476D01*
X98903571Y-64301190D01*
X98594047Y-64301190D01*
X98117857Y-64301190D02*
X98403571Y-64301190D01*
X98260714Y-64301190D02*
X98260714Y-63801190D01*
X98308333Y-63872619D01*
X98355952Y-63920238D01*
X98403571Y-63944047D01*
X97903571Y-64110714D02*
X97522619Y-64110714D01*
X97308333Y-64277380D02*
X97236904Y-64301190D01*
X97117857Y-64301190D01*
X97070238Y-64277380D01*
X97046428Y-64253571D01*
X97022619Y-64205952D01*
X97022619Y-64158333D01*
X97046428Y-64110714D01*
X97070238Y-64086904D01*
X97117857Y-64063095D01*
X97213095Y-64039285D01*
X97260714Y-64015476D01*
X97284523Y-63991666D01*
X97308333Y-63944047D01*
X97308333Y-63896428D01*
X97284523Y-63848809D01*
X97260714Y-63825000D01*
X97213095Y-63801190D01*
X97094047Y-63801190D01*
X97022619Y-63825000D01*
X96522619Y-64253571D02*
X96546428Y-64277380D01*
X96617857Y-64301190D01*
X96665476Y-64301190D01*
X96736904Y-64277380D01*
X96784523Y-64229761D01*
X96808333Y-64182142D01*
X96832142Y-64086904D01*
X96832142Y-64015476D01*
X96808333Y-63920238D01*
X96784523Y-63872619D01*
X96736904Y-63825000D01*
X96665476Y-63801190D01*
X96617857Y-63801190D01*
X96546428Y-63825000D01*
X96522619Y-63848809D01*
X96070238Y-64301190D02*
X96308333Y-64301190D01*
X96308333Y-63801190D01*
X95903571Y-64301190D02*
X95903571Y-63801190D01*
X95617857Y-64301190D02*
X95832142Y-64015476D01*
X95617857Y-63801190D02*
X95903571Y-64086904D01*
X95141666Y-64301190D02*
X95427380Y-64301190D01*
X95284523Y-64301190D02*
X95284523Y-63801190D01*
X95332142Y-63872619D01*
X95379761Y-63920238D01*
X95427380Y-63944047D01*
M02*
