G04 #@! TF.GenerationSoftware,KiCad,Pcbnew,5.0.2-bee76a0~70~ubuntu18.04.1*
G04 #@! TF.CreationDate,2019-03-02T20:55:38+01:00*
G04 #@! TF.ProjectId,rpi-zero-proto,7270692d-7a65-4726-9f2d-70726f746f2e,rev?*
G04 #@! TF.SameCoordinates,Original*
G04 #@! TF.FileFunction,Legend,Top*
G04 #@! TF.FilePolarity,Positive*
%FSLAX46Y46*%
G04 Gerber Fmt 4.6, Leading zero omitted, Abs format (unit mm)*
G04 Created by KiCad (PCBNEW 5.0.2-bee76a0~70~ubuntu18.04.1) date sob, 2 mar 2019, 20:55:38*
%MOMM*%
%LPD*%
G01*
G04 APERTURE LIST*
%ADD10C,0.200000*%
%ADD11C,0.125000*%
%ADD12C,0.150000*%
%ADD13C,0.120000*%
%ADD14C,0.152400*%
G04 APERTURE END LIST*
D10*
X93980000Y-52070000D02*
X93980000Y-46990000D01*
X43180000Y-52070000D02*
X93980000Y-52070000D01*
X43180000Y-46990000D02*
X43180000Y-52070000D01*
D11*
X41447600Y-49226550D02*
X41389800Y-49197650D01*
X41303100Y-49197650D01*
X41216400Y-49226550D01*
X41158600Y-49284350D01*
X41129700Y-49342150D01*
X41100800Y-49457750D01*
X41100800Y-49544450D01*
X41129700Y-49660050D01*
X41158600Y-49717850D01*
X41216400Y-49775650D01*
X41303100Y-49804550D01*
X41360900Y-49804550D01*
X41447600Y-49775650D01*
X41476500Y-49746750D01*
X41476500Y-49544450D01*
X41360900Y-49544450D01*
X41736600Y-49804550D02*
X41736600Y-49197650D01*
X42083400Y-49804550D01*
X42083400Y-49197650D01*
X42372400Y-49804550D02*
X42372400Y-49197650D01*
X42516900Y-49197650D01*
X42603600Y-49226550D01*
X42661400Y-49284350D01*
X42690300Y-49342150D01*
X42719200Y-49457750D01*
X42719200Y-49544450D01*
X42690300Y-49660050D01*
X42661400Y-49717850D01*
X42603600Y-49775650D01*
X42516900Y-49804550D01*
X42372400Y-49804550D01*
X38474100Y-49197650D02*
X38849800Y-49197650D01*
X38647500Y-49428850D01*
X38734200Y-49428850D01*
X38792000Y-49457750D01*
X38820900Y-49486650D01*
X38849800Y-49544450D01*
X38849800Y-49688950D01*
X38820900Y-49746750D01*
X38792000Y-49775650D01*
X38734200Y-49804550D01*
X38560800Y-49804550D01*
X38503000Y-49775650D01*
X38474100Y-49746750D01*
X39109900Y-49746750D02*
X39138800Y-49775650D01*
X39109900Y-49804550D01*
X39081000Y-49775650D01*
X39109900Y-49746750D01*
X39109900Y-49804550D01*
X39341100Y-49197650D02*
X39716800Y-49197650D01*
X39514500Y-49428850D01*
X39601200Y-49428850D01*
X39659000Y-49457750D01*
X39687900Y-49486650D01*
X39716800Y-49544450D01*
X39716800Y-49688950D01*
X39687900Y-49746750D01*
X39659000Y-49775650D01*
X39601200Y-49804550D01*
X39427800Y-49804550D01*
X39370000Y-49775650D01*
X39341100Y-49746750D01*
X39890200Y-49197650D02*
X40092500Y-49804550D01*
X40294800Y-49197650D01*
D10*
X41910000Y-61976000D02*
X41910000Y-62484000D01*
X41910000Y-59436000D02*
X41910000Y-59944000D01*
X41910000Y-56896000D02*
X41910000Y-57404000D01*
X41910000Y-54356000D02*
X41910000Y-54864000D01*
X41910000Y-51816000D02*
X41910000Y-52324000D01*
X39370000Y-52324000D02*
X39370000Y-51816000D01*
X39370000Y-54864000D02*
X39370000Y-54356000D01*
X39370000Y-57404000D02*
X39370000Y-56896000D01*
X39370000Y-59944000D02*
X39370000Y-59436000D01*
X39370000Y-62484000D02*
X39370000Y-61976000D01*
D11*
X51347500Y-46686550D02*
X51289700Y-46657650D01*
X51203000Y-46657650D01*
X51116300Y-46686550D01*
X51058500Y-46744350D01*
X51029600Y-46802150D01*
X51000700Y-46917750D01*
X51000700Y-47004450D01*
X51029600Y-47120050D01*
X51058500Y-47177850D01*
X51116300Y-47235650D01*
X51203000Y-47264550D01*
X51260800Y-47264550D01*
X51347500Y-47235650D01*
X51376400Y-47206750D01*
X51376400Y-47004450D01*
X51260800Y-47004450D01*
X51636500Y-47264550D02*
X51636500Y-46657650D01*
X51867700Y-46657650D01*
X51925500Y-46686550D01*
X51954400Y-46715450D01*
X51983300Y-46773250D01*
X51983300Y-46859950D01*
X51954400Y-46917750D01*
X51925500Y-46946650D01*
X51867700Y-46975550D01*
X51636500Y-46975550D01*
X52561300Y-47264550D02*
X52214500Y-47264550D01*
X52387900Y-47264550D02*
X52387900Y-46657650D01*
X52330100Y-46744350D01*
X52272300Y-46802150D01*
X52214500Y-46831050D01*
X53081500Y-46859950D02*
X53081500Y-47264550D01*
X52937000Y-46628750D02*
X52792500Y-47062250D01*
X53168200Y-47062250D01*
X46556500Y-49226550D02*
X46498700Y-49197650D01*
X46412000Y-49197650D01*
X46325300Y-49226550D01*
X46267500Y-49284350D01*
X46238600Y-49342150D01*
X46209700Y-49457750D01*
X46209700Y-49544450D01*
X46238600Y-49660050D01*
X46267500Y-49717850D01*
X46325300Y-49775650D01*
X46412000Y-49804550D01*
X46469800Y-49804550D01*
X46556500Y-49775650D01*
X46585400Y-49746750D01*
X46585400Y-49544450D01*
X46469800Y-49544450D01*
X46845500Y-49804550D02*
X46845500Y-49197650D01*
X47076700Y-49197650D01*
X47134500Y-49226550D01*
X47163400Y-49255450D01*
X47192300Y-49313250D01*
X47192300Y-49399950D01*
X47163400Y-49457750D01*
X47134500Y-49486650D01*
X47076700Y-49515550D01*
X46845500Y-49515550D01*
X47423500Y-49255450D02*
X47452400Y-49226550D01*
X47510200Y-49197650D01*
X47654700Y-49197650D01*
X47712500Y-49226550D01*
X47741400Y-49255450D01*
X47770300Y-49313250D01*
X47770300Y-49371050D01*
X47741400Y-49457750D01*
X47394600Y-49804550D01*
X47770300Y-49804550D01*
X49096500Y-49226550D02*
X49038700Y-49197650D01*
X48952000Y-49197650D01*
X48865300Y-49226550D01*
X48807500Y-49284350D01*
X48778600Y-49342150D01*
X48749700Y-49457750D01*
X48749700Y-49544450D01*
X48778600Y-49660050D01*
X48807500Y-49717850D01*
X48865300Y-49775650D01*
X48952000Y-49804550D01*
X49009800Y-49804550D01*
X49096500Y-49775650D01*
X49125400Y-49746750D01*
X49125400Y-49544450D01*
X49009800Y-49544450D01*
X49385500Y-49804550D02*
X49385500Y-49197650D01*
X49616700Y-49197650D01*
X49674500Y-49226550D01*
X49703400Y-49255450D01*
X49732300Y-49313250D01*
X49732300Y-49399950D01*
X49703400Y-49457750D01*
X49674500Y-49486650D01*
X49616700Y-49515550D01*
X49385500Y-49515550D01*
X49934600Y-49197650D02*
X50310300Y-49197650D01*
X50108000Y-49428850D01*
X50194700Y-49428850D01*
X50252500Y-49457750D01*
X50281400Y-49486650D01*
X50310300Y-49544450D01*
X50310300Y-49688950D01*
X50281400Y-49746750D01*
X50252500Y-49775650D01*
X50194700Y-49804550D01*
X50021300Y-49804550D01*
X49963500Y-49775650D01*
X49934600Y-49746750D01*
X51636500Y-49226550D02*
X51578700Y-49197650D01*
X51492000Y-49197650D01*
X51405300Y-49226550D01*
X51347500Y-49284350D01*
X51318600Y-49342150D01*
X51289700Y-49457750D01*
X51289700Y-49544450D01*
X51318600Y-49660050D01*
X51347500Y-49717850D01*
X51405300Y-49775650D01*
X51492000Y-49804550D01*
X51549800Y-49804550D01*
X51636500Y-49775650D01*
X51665400Y-49746750D01*
X51665400Y-49544450D01*
X51549800Y-49544450D01*
X51925500Y-49804550D02*
X51925500Y-49197650D01*
X52156700Y-49197650D01*
X52214500Y-49226550D01*
X52243400Y-49255450D01*
X52272300Y-49313250D01*
X52272300Y-49399950D01*
X52243400Y-49457750D01*
X52214500Y-49486650D01*
X52156700Y-49515550D01*
X51925500Y-49515550D01*
X52792500Y-49399950D02*
X52792500Y-49804550D01*
X52648000Y-49168750D02*
X52503500Y-49602250D01*
X52879200Y-49602250D01*
X54147600Y-49226550D02*
X54089800Y-49197650D01*
X54003100Y-49197650D01*
X53916400Y-49226550D01*
X53858600Y-49284350D01*
X53829700Y-49342150D01*
X53800800Y-49457750D01*
X53800800Y-49544450D01*
X53829700Y-49660050D01*
X53858600Y-49717850D01*
X53916400Y-49775650D01*
X54003100Y-49804550D01*
X54060900Y-49804550D01*
X54147600Y-49775650D01*
X54176500Y-49746750D01*
X54176500Y-49544450D01*
X54060900Y-49544450D01*
X54436600Y-49804550D02*
X54436600Y-49197650D01*
X54783400Y-49804550D01*
X54783400Y-49197650D01*
X55072400Y-49804550D02*
X55072400Y-49197650D01*
X55216900Y-49197650D01*
X55303600Y-49226550D01*
X55361400Y-49284350D01*
X55390300Y-49342150D01*
X55419200Y-49457750D01*
X55419200Y-49544450D01*
X55390300Y-49660050D01*
X55361400Y-49717850D01*
X55303600Y-49775650D01*
X55216900Y-49804550D01*
X55072400Y-49804550D01*
X53887500Y-46686550D02*
X53829700Y-46657650D01*
X53743000Y-46657650D01*
X53656300Y-46686550D01*
X53598500Y-46744350D01*
X53569600Y-46802150D01*
X53540700Y-46917750D01*
X53540700Y-47004450D01*
X53569600Y-47120050D01*
X53598500Y-47177850D01*
X53656300Y-47235650D01*
X53743000Y-47264550D01*
X53800800Y-47264550D01*
X53887500Y-47235650D01*
X53916400Y-47206750D01*
X53916400Y-47004450D01*
X53800800Y-47004450D01*
X54176500Y-47264550D02*
X54176500Y-46657650D01*
X54407700Y-46657650D01*
X54465500Y-46686550D01*
X54494400Y-46715450D01*
X54523300Y-46773250D01*
X54523300Y-46859950D01*
X54494400Y-46917750D01*
X54465500Y-46946650D01*
X54407700Y-46975550D01*
X54176500Y-46975550D01*
X55101300Y-47264550D02*
X54754500Y-47264550D01*
X54927900Y-47264550D02*
X54927900Y-46657650D01*
X54870100Y-46744350D01*
X54812300Y-46802150D01*
X54754500Y-46831050D01*
X55650400Y-46657650D02*
X55361400Y-46657650D01*
X55332500Y-46946650D01*
X55361400Y-46917750D01*
X55419200Y-46888850D01*
X55563700Y-46888850D01*
X55621500Y-46917750D01*
X55650400Y-46946650D01*
X55679300Y-47004450D01*
X55679300Y-47148950D01*
X55650400Y-47206750D01*
X55621500Y-47235650D01*
X55563700Y-47264550D01*
X55419200Y-47264550D01*
X55361400Y-47235650D01*
X55332500Y-47206750D01*
X56427500Y-46686550D02*
X56369700Y-46657650D01*
X56283000Y-46657650D01*
X56196300Y-46686550D01*
X56138500Y-46744350D01*
X56109600Y-46802150D01*
X56080700Y-46917750D01*
X56080700Y-47004450D01*
X56109600Y-47120050D01*
X56138500Y-47177850D01*
X56196300Y-47235650D01*
X56283000Y-47264550D01*
X56340800Y-47264550D01*
X56427500Y-47235650D01*
X56456400Y-47206750D01*
X56456400Y-47004450D01*
X56340800Y-47004450D01*
X56716500Y-47264550D02*
X56716500Y-46657650D01*
X56947700Y-46657650D01*
X57005500Y-46686550D01*
X57034400Y-46715450D01*
X57063300Y-46773250D01*
X57063300Y-46859950D01*
X57034400Y-46917750D01*
X57005500Y-46946650D01*
X56947700Y-46975550D01*
X56716500Y-46975550D01*
X57641300Y-47264550D02*
X57294500Y-47264550D01*
X57467900Y-47264550D02*
X57467900Y-46657650D01*
X57410100Y-46744350D01*
X57352300Y-46802150D01*
X57294500Y-46831050D01*
X57988100Y-46917750D02*
X57930300Y-46888850D01*
X57901400Y-46859950D01*
X57872500Y-46802150D01*
X57872500Y-46773250D01*
X57901400Y-46715450D01*
X57930300Y-46686550D01*
X57988100Y-46657650D01*
X58103700Y-46657650D01*
X58161500Y-46686550D01*
X58190400Y-46715450D01*
X58219300Y-46773250D01*
X58219300Y-46802150D01*
X58190400Y-46859950D01*
X58161500Y-46888850D01*
X58103700Y-46917750D01*
X57988100Y-46917750D01*
X57930300Y-46946650D01*
X57901400Y-46975550D01*
X57872500Y-47033350D01*
X57872500Y-47148950D01*
X57901400Y-47206750D01*
X57930300Y-47235650D01*
X57988100Y-47264550D01*
X58103700Y-47264550D01*
X58161500Y-47235650D01*
X58190400Y-47206750D01*
X58219300Y-47148950D01*
X58219300Y-47033350D01*
X58190400Y-46975550D01*
X58161500Y-46946650D01*
X58103700Y-46917750D01*
X56427500Y-49226550D02*
X56369700Y-49197650D01*
X56283000Y-49197650D01*
X56196300Y-49226550D01*
X56138500Y-49284350D01*
X56109600Y-49342150D01*
X56080700Y-49457750D01*
X56080700Y-49544450D01*
X56109600Y-49660050D01*
X56138500Y-49717850D01*
X56196300Y-49775650D01*
X56283000Y-49804550D01*
X56340800Y-49804550D01*
X56427500Y-49775650D01*
X56456400Y-49746750D01*
X56456400Y-49544450D01*
X56340800Y-49544450D01*
X56716500Y-49804550D02*
X56716500Y-49197650D01*
X56947700Y-49197650D01*
X57005500Y-49226550D01*
X57034400Y-49255450D01*
X57063300Y-49313250D01*
X57063300Y-49399950D01*
X57034400Y-49457750D01*
X57005500Y-49486650D01*
X56947700Y-49515550D01*
X56716500Y-49515550D01*
X57641300Y-49804550D02*
X57294500Y-49804550D01*
X57467900Y-49804550D02*
X57467900Y-49197650D01*
X57410100Y-49284350D01*
X57352300Y-49342150D01*
X57294500Y-49371050D01*
X57843600Y-49197650D02*
X58248200Y-49197650D01*
X57988100Y-49804550D01*
X58967500Y-49226550D02*
X58909700Y-49197650D01*
X58823000Y-49197650D01*
X58736300Y-49226550D01*
X58678500Y-49284350D01*
X58649600Y-49342150D01*
X58620700Y-49457750D01*
X58620700Y-49544450D01*
X58649600Y-49660050D01*
X58678500Y-49717850D01*
X58736300Y-49775650D01*
X58823000Y-49804550D01*
X58880800Y-49804550D01*
X58967500Y-49775650D01*
X58996400Y-49746750D01*
X58996400Y-49544450D01*
X58880800Y-49544450D01*
X59256500Y-49804550D02*
X59256500Y-49197650D01*
X59487700Y-49197650D01*
X59545500Y-49226550D01*
X59574400Y-49255450D01*
X59603300Y-49313250D01*
X59603300Y-49399950D01*
X59574400Y-49457750D01*
X59545500Y-49486650D01*
X59487700Y-49515550D01*
X59256500Y-49515550D01*
X59834500Y-49255450D02*
X59863400Y-49226550D01*
X59921200Y-49197650D01*
X60065700Y-49197650D01*
X60123500Y-49226550D01*
X60152400Y-49255450D01*
X60181300Y-49313250D01*
X60181300Y-49371050D01*
X60152400Y-49457750D01*
X59805600Y-49804550D01*
X60181300Y-49804550D01*
X60383600Y-49197650D02*
X60788200Y-49197650D01*
X60528100Y-49804550D01*
X61507500Y-49226550D02*
X61449700Y-49197650D01*
X61363000Y-49197650D01*
X61276300Y-49226550D01*
X61218500Y-49284350D01*
X61189600Y-49342150D01*
X61160700Y-49457750D01*
X61160700Y-49544450D01*
X61189600Y-49660050D01*
X61218500Y-49717850D01*
X61276300Y-49775650D01*
X61363000Y-49804550D01*
X61420800Y-49804550D01*
X61507500Y-49775650D01*
X61536400Y-49746750D01*
X61536400Y-49544450D01*
X61420800Y-49544450D01*
X61796500Y-49804550D02*
X61796500Y-49197650D01*
X62027700Y-49197650D01*
X62085500Y-49226550D01*
X62114400Y-49255450D01*
X62143300Y-49313250D01*
X62143300Y-49399950D01*
X62114400Y-49457750D01*
X62085500Y-49486650D01*
X62027700Y-49515550D01*
X61796500Y-49515550D01*
X62374500Y-49255450D02*
X62403400Y-49226550D01*
X62461200Y-49197650D01*
X62605700Y-49197650D01*
X62663500Y-49226550D01*
X62692400Y-49255450D01*
X62721300Y-49313250D01*
X62721300Y-49371050D01*
X62692400Y-49457750D01*
X62345600Y-49804550D01*
X62721300Y-49804550D01*
X62952500Y-49255450D02*
X62981400Y-49226550D01*
X63039200Y-49197650D01*
X63183700Y-49197650D01*
X63241500Y-49226550D01*
X63270400Y-49255450D01*
X63299300Y-49313250D01*
X63299300Y-49371050D01*
X63270400Y-49457750D01*
X62923600Y-49804550D01*
X63299300Y-49804550D01*
X61507500Y-46686550D02*
X61449700Y-46657650D01*
X61363000Y-46657650D01*
X61276300Y-46686550D01*
X61218500Y-46744350D01*
X61189600Y-46802150D01*
X61160700Y-46917750D01*
X61160700Y-47004450D01*
X61189600Y-47120050D01*
X61218500Y-47177850D01*
X61276300Y-47235650D01*
X61363000Y-47264550D01*
X61420800Y-47264550D01*
X61507500Y-47235650D01*
X61536400Y-47206750D01*
X61536400Y-47004450D01*
X61420800Y-47004450D01*
X61796500Y-47264550D02*
X61796500Y-46657650D01*
X62027700Y-46657650D01*
X62085500Y-46686550D01*
X62114400Y-46715450D01*
X62143300Y-46773250D01*
X62143300Y-46859950D01*
X62114400Y-46917750D01*
X62085500Y-46946650D01*
X62027700Y-46975550D01*
X61796500Y-46975550D01*
X62374500Y-46715450D02*
X62403400Y-46686550D01*
X62461200Y-46657650D01*
X62605700Y-46657650D01*
X62663500Y-46686550D01*
X62692400Y-46715450D01*
X62721300Y-46773250D01*
X62721300Y-46831050D01*
X62692400Y-46917750D01*
X62345600Y-47264550D01*
X62721300Y-47264550D01*
X62923600Y-46657650D02*
X63299300Y-46657650D01*
X63097000Y-46888850D01*
X63183700Y-46888850D01*
X63241500Y-46917750D01*
X63270400Y-46946650D01*
X63299300Y-47004450D01*
X63299300Y-47148950D01*
X63270400Y-47206750D01*
X63241500Y-47235650D01*
X63183700Y-47264550D01*
X63010300Y-47264550D01*
X62952500Y-47235650D01*
X62923600Y-47206750D01*
X64047500Y-46686550D02*
X63989700Y-46657650D01*
X63903000Y-46657650D01*
X63816300Y-46686550D01*
X63758500Y-46744350D01*
X63729600Y-46802150D01*
X63700700Y-46917750D01*
X63700700Y-47004450D01*
X63729600Y-47120050D01*
X63758500Y-47177850D01*
X63816300Y-47235650D01*
X63903000Y-47264550D01*
X63960800Y-47264550D01*
X64047500Y-47235650D01*
X64076400Y-47206750D01*
X64076400Y-47004450D01*
X63960800Y-47004450D01*
X64336500Y-47264550D02*
X64336500Y-46657650D01*
X64567700Y-46657650D01*
X64625500Y-46686550D01*
X64654400Y-46715450D01*
X64683300Y-46773250D01*
X64683300Y-46859950D01*
X64654400Y-46917750D01*
X64625500Y-46946650D01*
X64567700Y-46975550D01*
X64336500Y-46975550D01*
X64914500Y-46715450D02*
X64943400Y-46686550D01*
X65001200Y-46657650D01*
X65145700Y-46657650D01*
X65203500Y-46686550D01*
X65232400Y-46715450D01*
X65261300Y-46773250D01*
X65261300Y-46831050D01*
X65232400Y-46917750D01*
X64885600Y-47264550D01*
X65261300Y-47264550D01*
X65781500Y-46859950D02*
X65781500Y-47264550D01*
X65637000Y-46628750D02*
X65492500Y-47062250D01*
X65868200Y-47062250D01*
X63874100Y-49197650D02*
X64249800Y-49197650D01*
X64047500Y-49428850D01*
X64134200Y-49428850D01*
X64192000Y-49457750D01*
X64220900Y-49486650D01*
X64249800Y-49544450D01*
X64249800Y-49688950D01*
X64220900Y-49746750D01*
X64192000Y-49775650D01*
X64134200Y-49804550D01*
X63960800Y-49804550D01*
X63903000Y-49775650D01*
X63874100Y-49746750D01*
X64509900Y-49746750D02*
X64538800Y-49775650D01*
X64509900Y-49804550D01*
X64481000Y-49775650D01*
X64509900Y-49746750D01*
X64509900Y-49804550D01*
X64741100Y-49197650D02*
X65116800Y-49197650D01*
X64914500Y-49428850D01*
X65001200Y-49428850D01*
X65059000Y-49457750D01*
X65087900Y-49486650D01*
X65116800Y-49544450D01*
X65116800Y-49688950D01*
X65087900Y-49746750D01*
X65059000Y-49775650D01*
X65001200Y-49804550D01*
X64827800Y-49804550D01*
X64770000Y-49775650D01*
X64741100Y-49746750D01*
X65290200Y-49197650D02*
X65492500Y-49804550D01*
X65694800Y-49197650D01*
X43554100Y-49197650D02*
X43929800Y-49197650D01*
X43727500Y-49428850D01*
X43814200Y-49428850D01*
X43872000Y-49457750D01*
X43900900Y-49486650D01*
X43929800Y-49544450D01*
X43929800Y-49688950D01*
X43900900Y-49746750D01*
X43872000Y-49775650D01*
X43814200Y-49804550D01*
X43640800Y-49804550D01*
X43583000Y-49775650D01*
X43554100Y-49746750D01*
X44189900Y-49746750D02*
X44218800Y-49775650D01*
X44189900Y-49804550D01*
X44161000Y-49775650D01*
X44189900Y-49746750D01*
X44189900Y-49804550D01*
X44421100Y-49197650D02*
X44796800Y-49197650D01*
X44594500Y-49428850D01*
X44681200Y-49428850D01*
X44739000Y-49457750D01*
X44767900Y-49486650D01*
X44796800Y-49544450D01*
X44796800Y-49688950D01*
X44767900Y-49746750D01*
X44739000Y-49775650D01*
X44681200Y-49804550D01*
X44507800Y-49804550D01*
X44450000Y-49775650D01*
X44421100Y-49746750D01*
X44970200Y-49197650D02*
X45172500Y-49804550D01*
X45374800Y-49197650D01*
X66587500Y-49226550D02*
X66529700Y-49197650D01*
X66443000Y-49197650D01*
X66356300Y-49226550D01*
X66298500Y-49284350D01*
X66269600Y-49342150D01*
X66240700Y-49457750D01*
X66240700Y-49544450D01*
X66269600Y-49660050D01*
X66298500Y-49717850D01*
X66356300Y-49775650D01*
X66443000Y-49804550D01*
X66500800Y-49804550D01*
X66587500Y-49775650D01*
X66616400Y-49746750D01*
X66616400Y-49544450D01*
X66500800Y-49544450D01*
X66876500Y-49804550D02*
X66876500Y-49197650D01*
X67107700Y-49197650D01*
X67165500Y-49226550D01*
X67194400Y-49255450D01*
X67223300Y-49313250D01*
X67223300Y-49399950D01*
X67194400Y-49457750D01*
X67165500Y-49486650D01*
X67107700Y-49515550D01*
X66876500Y-49515550D01*
X67801300Y-49804550D02*
X67454500Y-49804550D01*
X67627900Y-49804550D02*
X67627900Y-49197650D01*
X67570100Y-49284350D01*
X67512300Y-49342150D01*
X67454500Y-49371050D01*
X68177000Y-49197650D02*
X68234800Y-49197650D01*
X68292600Y-49226550D01*
X68321500Y-49255450D01*
X68350400Y-49313250D01*
X68379300Y-49428850D01*
X68379300Y-49573350D01*
X68350400Y-49688950D01*
X68321500Y-49746750D01*
X68292600Y-49775650D01*
X68234800Y-49804550D01*
X68177000Y-49804550D01*
X68119200Y-49775650D01*
X68090300Y-49746750D01*
X68061400Y-49688950D01*
X68032500Y-49573350D01*
X68032500Y-49428850D01*
X68061400Y-49313250D01*
X68090300Y-49255450D01*
X68119200Y-49226550D01*
X68177000Y-49197650D01*
X69127500Y-46686550D02*
X69069700Y-46657650D01*
X68983000Y-46657650D01*
X68896300Y-46686550D01*
X68838500Y-46744350D01*
X68809600Y-46802150D01*
X68780700Y-46917750D01*
X68780700Y-47004450D01*
X68809600Y-47120050D01*
X68838500Y-47177850D01*
X68896300Y-47235650D01*
X68983000Y-47264550D01*
X69040800Y-47264550D01*
X69127500Y-47235650D01*
X69156400Y-47206750D01*
X69156400Y-47004450D01*
X69040800Y-47004450D01*
X69416500Y-47264550D02*
X69416500Y-46657650D01*
X69647700Y-46657650D01*
X69705500Y-46686550D01*
X69734400Y-46715450D01*
X69763300Y-46773250D01*
X69763300Y-46859950D01*
X69734400Y-46917750D01*
X69705500Y-46946650D01*
X69647700Y-46975550D01*
X69416500Y-46975550D01*
X69994500Y-46715450D02*
X70023400Y-46686550D01*
X70081200Y-46657650D01*
X70225700Y-46657650D01*
X70283500Y-46686550D01*
X70312400Y-46715450D01*
X70341300Y-46773250D01*
X70341300Y-46831050D01*
X70312400Y-46917750D01*
X69965600Y-47264550D01*
X70341300Y-47264550D01*
X70890400Y-46657650D02*
X70601400Y-46657650D01*
X70572500Y-46946650D01*
X70601400Y-46917750D01*
X70659200Y-46888850D01*
X70803700Y-46888850D01*
X70861500Y-46917750D01*
X70890400Y-46946650D01*
X70919300Y-47004450D01*
X70919300Y-47148950D01*
X70890400Y-47206750D01*
X70861500Y-47235650D01*
X70803700Y-47264550D01*
X70659200Y-47264550D01*
X70601400Y-47235650D01*
X70572500Y-47206750D01*
X69416500Y-49226550D02*
X69358700Y-49197650D01*
X69272000Y-49197650D01*
X69185300Y-49226550D01*
X69127500Y-49284350D01*
X69098600Y-49342150D01*
X69069700Y-49457750D01*
X69069700Y-49544450D01*
X69098600Y-49660050D01*
X69127500Y-49717850D01*
X69185300Y-49775650D01*
X69272000Y-49804550D01*
X69329800Y-49804550D01*
X69416500Y-49775650D01*
X69445400Y-49746750D01*
X69445400Y-49544450D01*
X69329800Y-49544450D01*
X69705500Y-49804550D02*
X69705500Y-49197650D01*
X69936700Y-49197650D01*
X69994500Y-49226550D01*
X70023400Y-49255450D01*
X70052300Y-49313250D01*
X70052300Y-49399950D01*
X70023400Y-49457750D01*
X69994500Y-49486650D01*
X69936700Y-49515550D01*
X69705500Y-49515550D01*
X70341300Y-49804550D02*
X70456900Y-49804550D01*
X70514700Y-49775650D01*
X70543600Y-49746750D01*
X70601400Y-49660050D01*
X70630300Y-49544450D01*
X70630300Y-49313250D01*
X70601400Y-49255450D01*
X70572500Y-49226550D01*
X70514700Y-49197650D01*
X70399100Y-49197650D01*
X70341300Y-49226550D01*
X70312400Y-49255450D01*
X70283500Y-49313250D01*
X70283500Y-49457750D01*
X70312400Y-49515550D01*
X70341300Y-49544450D01*
X70399100Y-49573350D01*
X70514700Y-49573350D01*
X70572500Y-49544450D01*
X70601400Y-49515550D01*
X70630300Y-49457750D01*
X71667500Y-49226550D02*
X71609700Y-49197650D01*
X71523000Y-49197650D01*
X71436300Y-49226550D01*
X71378500Y-49284350D01*
X71349600Y-49342150D01*
X71320700Y-49457750D01*
X71320700Y-49544450D01*
X71349600Y-49660050D01*
X71378500Y-49717850D01*
X71436300Y-49775650D01*
X71523000Y-49804550D01*
X71580800Y-49804550D01*
X71667500Y-49775650D01*
X71696400Y-49746750D01*
X71696400Y-49544450D01*
X71580800Y-49544450D01*
X71956500Y-49804550D02*
X71956500Y-49197650D01*
X72187700Y-49197650D01*
X72245500Y-49226550D01*
X72274400Y-49255450D01*
X72303300Y-49313250D01*
X72303300Y-49399950D01*
X72274400Y-49457750D01*
X72245500Y-49486650D01*
X72187700Y-49515550D01*
X71956500Y-49515550D01*
X72881300Y-49804550D02*
X72534500Y-49804550D01*
X72707900Y-49804550D02*
X72707900Y-49197650D01*
X72650100Y-49284350D01*
X72592300Y-49342150D01*
X72534500Y-49371050D01*
X73459300Y-49804550D02*
X73112500Y-49804550D01*
X73285900Y-49804550D02*
X73285900Y-49197650D01*
X73228100Y-49284350D01*
X73170300Y-49342150D01*
X73112500Y-49371050D01*
X71956500Y-46686550D02*
X71898700Y-46657650D01*
X71812000Y-46657650D01*
X71725300Y-46686550D01*
X71667500Y-46744350D01*
X71638600Y-46802150D01*
X71609700Y-46917750D01*
X71609700Y-47004450D01*
X71638600Y-47120050D01*
X71667500Y-47177850D01*
X71725300Y-47235650D01*
X71812000Y-47264550D01*
X71869800Y-47264550D01*
X71956500Y-47235650D01*
X71985400Y-47206750D01*
X71985400Y-47004450D01*
X71869800Y-47004450D01*
X72245500Y-47264550D02*
X72245500Y-46657650D01*
X72476700Y-46657650D01*
X72534500Y-46686550D01*
X72563400Y-46715450D01*
X72592300Y-46773250D01*
X72592300Y-46859950D01*
X72563400Y-46917750D01*
X72534500Y-46946650D01*
X72476700Y-46975550D01*
X72245500Y-46975550D01*
X72939100Y-46917750D02*
X72881300Y-46888850D01*
X72852400Y-46859950D01*
X72823500Y-46802150D01*
X72823500Y-46773250D01*
X72852400Y-46715450D01*
X72881300Y-46686550D01*
X72939100Y-46657650D01*
X73054700Y-46657650D01*
X73112500Y-46686550D01*
X73141400Y-46715450D01*
X73170300Y-46773250D01*
X73170300Y-46802150D01*
X73141400Y-46859950D01*
X73112500Y-46888850D01*
X73054700Y-46917750D01*
X72939100Y-46917750D01*
X72881300Y-46946650D01*
X72852400Y-46975550D01*
X72823500Y-47033350D01*
X72823500Y-47148950D01*
X72852400Y-47206750D01*
X72881300Y-47235650D01*
X72939100Y-47264550D01*
X73054700Y-47264550D01*
X73112500Y-47235650D01*
X73141400Y-47206750D01*
X73170300Y-47148950D01*
X73170300Y-47033350D01*
X73141400Y-46975550D01*
X73112500Y-46946650D01*
X73054700Y-46917750D01*
X74496500Y-46686550D02*
X74438700Y-46657650D01*
X74352000Y-46657650D01*
X74265300Y-46686550D01*
X74207500Y-46744350D01*
X74178600Y-46802150D01*
X74149700Y-46917750D01*
X74149700Y-47004450D01*
X74178600Y-47120050D01*
X74207500Y-47177850D01*
X74265300Y-47235650D01*
X74352000Y-47264550D01*
X74409800Y-47264550D01*
X74496500Y-47235650D01*
X74525400Y-47206750D01*
X74525400Y-47004450D01*
X74409800Y-47004450D01*
X74785500Y-47264550D02*
X74785500Y-46657650D01*
X75016700Y-46657650D01*
X75074500Y-46686550D01*
X75103400Y-46715450D01*
X75132300Y-46773250D01*
X75132300Y-46859950D01*
X75103400Y-46917750D01*
X75074500Y-46946650D01*
X75016700Y-46975550D01*
X74785500Y-46975550D01*
X75334600Y-46657650D02*
X75739200Y-46657650D01*
X75479100Y-47264550D01*
X77036500Y-46686550D02*
X76978700Y-46657650D01*
X76892000Y-46657650D01*
X76805300Y-46686550D01*
X76747500Y-46744350D01*
X76718600Y-46802150D01*
X76689700Y-46917750D01*
X76689700Y-47004450D01*
X76718600Y-47120050D01*
X76747500Y-47177850D01*
X76805300Y-47235650D01*
X76892000Y-47264550D01*
X76949800Y-47264550D01*
X77036500Y-47235650D01*
X77065400Y-47206750D01*
X77065400Y-47004450D01*
X76949800Y-47004450D01*
X77325500Y-47264550D02*
X77325500Y-46657650D01*
X77556700Y-46657650D01*
X77614500Y-46686550D01*
X77643400Y-46715450D01*
X77672300Y-46773250D01*
X77672300Y-46859950D01*
X77643400Y-46917750D01*
X77614500Y-46946650D01*
X77556700Y-46975550D01*
X77325500Y-46975550D01*
X78250300Y-47264550D02*
X77903500Y-47264550D01*
X78076900Y-47264550D02*
X78076900Y-46657650D01*
X78019100Y-46744350D01*
X77961300Y-46802150D01*
X77903500Y-46831050D01*
X77036500Y-49226550D02*
X76978700Y-49197650D01*
X76892000Y-49197650D01*
X76805300Y-49226550D01*
X76747500Y-49284350D01*
X76718600Y-49342150D01*
X76689700Y-49457750D01*
X76689700Y-49544450D01*
X76718600Y-49660050D01*
X76747500Y-49717850D01*
X76805300Y-49775650D01*
X76892000Y-49804550D01*
X76949800Y-49804550D01*
X77036500Y-49775650D01*
X77065400Y-49746750D01*
X77065400Y-49544450D01*
X76949800Y-49544450D01*
X77325500Y-49804550D02*
X77325500Y-49197650D01*
X77556700Y-49197650D01*
X77614500Y-49226550D01*
X77643400Y-49255450D01*
X77672300Y-49313250D01*
X77672300Y-49399950D01*
X77643400Y-49457750D01*
X77614500Y-49486650D01*
X77556700Y-49515550D01*
X77325500Y-49515550D01*
X78048000Y-49197650D02*
X78105800Y-49197650D01*
X78163600Y-49226550D01*
X78192500Y-49255450D01*
X78221400Y-49313250D01*
X78250300Y-49428850D01*
X78250300Y-49573350D01*
X78221400Y-49688950D01*
X78192500Y-49746750D01*
X78163600Y-49775650D01*
X78105800Y-49804550D01*
X78048000Y-49804550D01*
X77990200Y-49775650D01*
X77961300Y-49746750D01*
X77932400Y-49688950D01*
X77903500Y-49573350D01*
X77903500Y-49428850D01*
X77932400Y-49313250D01*
X77961300Y-49255450D01*
X77990200Y-49226550D01*
X78048000Y-49197650D01*
X79576500Y-49226550D02*
X79518700Y-49197650D01*
X79432000Y-49197650D01*
X79345300Y-49226550D01*
X79287500Y-49284350D01*
X79258600Y-49342150D01*
X79229700Y-49457750D01*
X79229700Y-49544450D01*
X79258600Y-49660050D01*
X79287500Y-49717850D01*
X79345300Y-49775650D01*
X79432000Y-49804550D01*
X79489800Y-49804550D01*
X79576500Y-49775650D01*
X79605400Y-49746750D01*
X79605400Y-49544450D01*
X79489800Y-49544450D01*
X79865500Y-49804550D02*
X79865500Y-49197650D01*
X80096700Y-49197650D01*
X80154500Y-49226550D01*
X80183400Y-49255450D01*
X80212300Y-49313250D01*
X80212300Y-49399950D01*
X80183400Y-49457750D01*
X80154500Y-49486650D01*
X80096700Y-49515550D01*
X79865500Y-49515550D01*
X80761400Y-49197650D02*
X80472400Y-49197650D01*
X80443500Y-49486650D01*
X80472400Y-49457750D01*
X80530200Y-49428850D01*
X80674700Y-49428850D01*
X80732500Y-49457750D01*
X80761400Y-49486650D01*
X80790300Y-49544450D01*
X80790300Y-49688950D01*
X80761400Y-49746750D01*
X80732500Y-49775650D01*
X80674700Y-49804550D01*
X80530200Y-49804550D01*
X80472400Y-49775650D01*
X80443500Y-49746750D01*
X82116500Y-49226550D02*
X82058700Y-49197650D01*
X81972000Y-49197650D01*
X81885300Y-49226550D01*
X81827500Y-49284350D01*
X81798600Y-49342150D01*
X81769700Y-49457750D01*
X81769700Y-49544450D01*
X81798600Y-49660050D01*
X81827500Y-49717850D01*
X81885300Y-49775650D01*
X81972000Y-49804550D01*
X82029800Y-49804550D01*
X82116500Y-49775650D01*
X82145400Y-49746750D01*
X82145400Y-49544450D01*
X82029800Y-49544450D01*
X82405500Y-49804550D02*
X82405500Y-49197650D01*
X82636700Y-49197650D01*
X82694500Y-49226550D01*
X82723400Y-49255450D01*
X82752300Y-49313250D01*
X82752300Y-49399950D01*
X82723400Y-49457750D01*
X82694500Y-49486650D01*
X82636700Y-49515550D01*
X82405500Y-49515550D01*
X83272500Y-49197650D02*
X83156900Y-49197650D01*
X83099100Y-49226550D01*
X83070200Y-49255450D01*
X83012400Y-49342150D01*
X82983500Y-49457750D01*
X82983500Y-49688950D01*
X83012400Y-49746750D01*
X83041300Y-49775650D01*
X83099100Y-49804550D01*
X83214700Y-49804550D01*
X83272500Y-49775650D01*
X83301400Y-49746750D01*
X83330300Y-49688950D01*
X83330300Y-49544450D01*
X83301400Y-49486650D01*
X83272500Y-49457750D01*
X83214700Y-49428850D01*
X83099100Y-49428850D01*
X83041300Y-49457750D01*
X83012400Y-49486650D01*
X82983500Y-49544450D01*
X81827500Y-46686550D02*
X81769700Y-46657650D01*
X81683000Y-46657650D01*
X81596300Y-46686550D01*
X81538500Y-46744350D01*
X81509600Y-46802150D01*
X81480700Y-46917750D01*
X81480700Y-47004450D01*
X81509600Y-47120050D01*
X81538500Y-47177850D01*
X81596300Y-47235650D01*
X81683000Y-47264550D01*
X81740800Y-47264550D01*
X81827500Y-47235650D01*
X81856400Y-47206750D01*
X81856400Y-47004450D01*
X81740800Y-47004450D01*
X82116500Y-47264550D02*
X82116500Y-46657650D01*
X82347700Y-46657650D01*
X82405500Y-46686550D01*
X82434400Y-46715450D01*
X82463300Y-46773250D01*
X82463300Y-46859950D01*
X82434400Y-46917750D01*
X82405500Y-46946650D01*
X82347700Y-46975550D01*
X82116500Y-46975550D01*
X83041300Y-47264550D02*
X82694500Y-47264550D01*
X82867900Y-47264550D02*
X82867900Y-46657650D01*
X82810100Y-46744350D01*
X82752300Y-46802150D01*
X82694500Y-46831050D01*
X83272500Y-46715450D02*
X83301400Y-46686550D01*
X83359200Y-46657650D01*
X83503700Y-46657650D01*
X83561500Y-46686550D01*
X83590400Y-46715450D01*
X83619300Y-46773250D01*
X83619300Y-46831050D01*
X83590400Y-46917750D01*
X83243600Y-47264550D01*
X83619300Y-47264550D01*
X86904285Y-46685200D02*
X86846228Y-46656171D01*
X86759142Y-46656171D01*
X86672057Y-46685200D01*
X86614000Y-46743257D01*
X86584971Y-46801314D01*
X86555942Y-46917428D01*
X86555942Y-47004514D01*
X86584971Y-47120628D01*
X86614000Y-47178685D01*
X86672057Y-47236742D01*
X86759142Y-47265771D01*
X86817200Y-47265771D01*
X86904285Y-47236742D01*
X86933314Y-47207714D01*
X86933314Y-47004514D01*
X86817200Y-47004514D01*
X87194571Y-47265771D02*
X87194571Y-46656171D01*
X87426800Y-46656171D01*
X87484857Y-46685200D01*
X87513885Y-46714228D01*
X87542914Y-46772285D01*
X87542914Y-46859371D01*
X87513885Y-46917428D01*
X87484857Y-46946457D01*
X87426800Y-46975485D01*
X87194571Y-46975485D01*
X88123485Y-47265771D02*
X87775142Y-47265771D01*
X87949314Y-47265771D02*
X87949314Y-46656171D01*
X87891257Y-46743257D01*
X87833200Y-46801314D01*
X87775142Y-46830342D01*
X88646000Y-46656171D02*
X88529885Y-46656171D01*
X88471828Y-46685200D01*
X88442800Y-46714228D01*
X88384742Y-46801314D01*
X88355714Y-46917428D01*
X88355714Y-47149657D01*
X88384742Y-47207714D01*
X88413771Y-47236742D01*
X88471828Y-47265771D01*
X88587942Y-47265771D01*
X88646000Y-47236742D01*
X88675028Y-47207714D01*
X88704057Y-47149657D01*
X88704057Y-47004514D01*
X88675028Y-46946457D01*
X88646000Y-46917428D01*
X88587942Y-46888400D01*
X88471828Y-46888400D01*
X88413771Y-46917428D01*
X88384742Y-46946457D01*
X88355714Y-47004514D01*
X84367500Y-49226550D02*
X84309700Y-49197650D01*
X84223000Y-49197650D01*
X84136300Y-49226550D01*
X84078500Y-49284350D01*
X84049600Y-49342150D01*
X84020700Y-49457750D01*
X84020700Y-49544450D01*
X84049600Y-49660050D01*
X84078500Y-49717850D01*
X84136300Y-49775650D01*
X84223000Y-49804550D01*
X84280800Y-49804550D01*
X84367500Y-49775650D01*
X84396400Y-49746750D01*
X84396400Y-49544450D01*
X84280800Y-49544450D01*
X84656500Y-49804550D02*
X84656500Y-49197650D01*
X84887700Y-49197650D01*
X84945500Y-49226550D01*
X84974400Y-49255450D01*
X85003300Y-49313250D01*
X85003300Y-49399950D01*
X84974400Y-49457750D01*
X84945500Y-49486650D01*
X84887700Y-49515550D01*
X84656500Y-49515550D01*
X85581300Y-49804550D02*
X85234500Y-49804550D01*
X85407900Y-49804550D02*
X85407900Y-49197650D01*
X85350100Y-49284350D01*
X85292300Y-49342150D01*
X85234500Y-49371050D01*
X85783600Y-49197650D02*
X86159300Y-49197650D01*
X85957000Y-49428850D01*
X86043700Y-49428850D01*
X86101500Y-49457750D01*
X86130400Y-49486650D01*
X86159300Y-49544450D01*
X86159300Y-49688950D01*
X86130400Y-49746750D01*
X86101500Y-49775650D01*
X86043700Y-49804550D01*
X85870300Y-49804550D01*
X85812500Y-49775650D01*
X85783600Y-49746750D01*
X86907500Y-49226550D02*
X86849700Y-49197650D01*
X86763000Y-49197650D01*
X86676300Y-49226550D01*
X86618500Y-49284350D01*
X86589600Y-49342150D01*
X86560700Y-49457750D01*
X86560700Y-49544450D01*
X86589600Y-49660050D01*
X86618500Y-49717850D01*
X86676300Y-49775650D01*
X86763000Y-49804550D01*
X86820800Y-49804550D01*
X86907500Y-49775650D01*
X86936400Y-49746750D01*
X86936400Y-49544450D01*
X86820800Y-49544450D01*
X87196500Y-49804550D02*
X87196500Y-49197650D01*
X87427700Y-49197650D01*
X87485500Y-49226550D01*
X87514400Y-49255450D01*
X87543300Y-49313250D01*
X87543300Y-49399950D01*
X87514400Y-49457750D01*
X87485500Y-49486650D01*
X87427700Y-49515550D01*
X87196500Y-49515550D01*
X88121300Y-49804550D02*
X87774500Y-49804550D01*
X87947900Y-49804550D02*
X87947900Y-49197650D01*
X87890100Y-49284350D01*
X87832300Y-49342150D01*
X87774500Y-49371050D01*
X88410300Y-49804550D02*
X88525900Y-49804550D01*
X88583700Y-49775650D01*
X88612600Y-49746750D01*
X88670400Y-49660050D01*
X88699300Y-49544450D01*
X88699300Y-49313250D01*
X88670400Y-49255450D01*
X88641500Y-49226550D01*
X88583700Y-49197650D01*
X88468100Y-49197650D01*
X88410300Y-49226550D01*
X88381400Y-49255450D01*
X88352500Y-49313250D01*
X88352500Y-49457750D01*
X88381400Y-49515550D01*
X88410300Y-49544450D01*
X88468100Y-49573350D01*
X88583700Y-49573350D01*
X88641500Y-49544450D01*
X88670400Y-49515550D01*
X88699300Y-49457750D01*
X89447500Y-49226550D02*
X89389700Y-49197650D01*
X89303000Y-49197650D01*
X89216300Y-49226550D01*
X89158500Y-49284350D01*
X89129600Y-49342150D01*
X89100700Y-49457750D01*
X89100700Y-49544450D01*
X89129600Y-49660050D01*
X89158500Y-49717850D01*
X89216300Y-49775650D01*
X89303000Y-49804550D01*
X89360800Y-49804550D01*
X89447500Y-49775650D01*
X89476400Y-49746750D01*
X89476400Y-49544450D01*
X89360800Y-49544450D01*
X89736500Y-49804550D02*
X89736500Y-49197650D01*
X89967700Y-49197650D01*
X90025500Y-49226550D01*
X90054400Y-49255450D01*
X90083300Y-49313250D01*
X90083300Y-49399950D01*
X90054400Y-49457750D01*
X90025500Y-49486650D01*
X89967700Y-49515550D01*
X89736500Y-49515550D01*
X90314500Y-49255450D02*
X90343400Y-49226550D01*
X90401200Y-49197650D01*
X90545700Y-49197650D01*
X90603500Y-49226550D01*
X90632400Y-49255450D01*
X90661300Y-49313250D01*
X90661300Y-49371050D01*
X90632400Y-49457750D01*
X90285600Y-49804550D01*
X90661300Y-49804550D01*
X91181500Y-49197650D02*
X91065900Y-49197650D01*
X91008100Y-49226550D01*
X90979200Y-49255450D01*
X90921400Y-49342150D01*
X90892500Y-49457750D01*
X90892500Y-49688950D01*
X90921400Y-49746750D01*
X90950300Y-49775650D01*
X91008100Y-49804550D01*
X91123700Y-49804550D01*
X91181500Y-49775650D01*
X91210400Y-49746750D01*
X91239300Y-49688950D01*
X91239300Y-49544450D01*
X91210400Y-49486650D01*
X91181500Y-49457750D01*
X91123700Y-49428850D01*
X91008100Y-49428850D01*
X90950300Y-49457750D01*
X90921400Y-49486650D01*
X90892500Y-49544450D01*
X89447500Y-46686550D02*
X89389700Y-46657650D01*
X89303000Y-46657650D01*
X89216300Y-46686550D01*
X89158500Y-46744350D01*
X89129600Y-46802150D01*
X89100700Y-46917750D01*
X89100700Y-47004450D01*
X89129600Y-47120050D01*
X89158500Y-47177850D01*
X89216300Y-47235650D01*
X89303000Y-47264550D01*
X89360800Y-47264550D01*
X89447500Y-47235650D01*
X89476400Y-47206750D01*
X89476400Y-47004450D01*
X89360800Y-47004450D01*
X89736500Y-47264550D02*
X89736500Y-46657650D01*
X89967700Y-46657650D01*
X90025500Y-46686550D01*
X90054400Y-46715450D01*
X90083300Y-46773250D01*
X90083300Y-46859950D01*
X90054400Y-46917750D01*
X90025500Y-46946650D01*
X89967700Y-46975550D01*
X89736500Y-46975550D01*
X90314500Y-46715450D02*
X90343400Y-46686550D01*
X90401200Y-46657650D01*
X90545700Y-46657650D01*
X90603500Y-46686550D01*
X90632400Y-46715450D01*
X90661300Y-46773250D01*
X90661300Y-46831050D01*
X90632400Y-46917750D01*
X90285600Y-47264550D01*
X90661300Y-47264550D01*
X91037000Y-46657650D02*
X91094800Y-46657650D01*
X91152600Y-46686550D01*
X91181500Y-46715450D01*
X91210400Y-46773250D01*
X91239300Y-46888850D01*
X91239300Y-47033350D01*
X91210400Y-47148950D01*
X91181500Y-47206750D01*
X91152600Y-47235650D01*
X91094800Y-47264550D01*
X91037000Y-47264550D01*
X90979200Y-47235650D01*
X90950300Y-47206750D01*
X90921400Y-47148950D01*
X90892500Y-47033350D01*
X90892500Y-46888850D01*
X90921400Y-46773250D01*
X90950300Y-46715450D01*
X90979200Y-46686550D01*
X91037000Y-46657650D01*
X91987500Y-46686550D02*
X91929700Y-46657650D01*
X91843000Y-46657650D01*
X91756300Y-46686550D01*
X91698500Y-46744350D01*
X91669600Y-46802150D01*
X91640700Y-46917750D01*
X91640700Y-47004450D01*
X91669600Y-47120050D01*
X91698500Y-47177850D01*
X91756300Y-47235650D01*
X91843000Y-47264550D01*
X91900800Y-47264550D01*
X91987500Y-47235650D01*
X92016400Y-47206750D01*
X92016400Y-47004450D01*
X91900800Y-47004450D01*
X92276500Y-47264550D02*
X92276500Y-46657650D01*
X92507700Y-46657650D01*
X92565500Y-46686550D01*
X92594400Y-46715450D01*
X92623300Y-46773250D01*
X92623300Y-46859950D01*
X92594400Y-46917750D01*
X92565500Y-46946650D01*
X92507700Y-46975550D01*
X92276500Y-46975550D01*
X92854500Y-46715450D02*
X92883400Y-46686550D01*
X92941200Y-46657650D01*
X93085700Y-46657650D01*
X93143500Y-46686550D01*
X93172400Y-46715450D01*
X93201300Y-46773250D01*
X93201300Y-46831050D01*
X93172400Y-46917750D01*
X92825600Y-47264550D01*
X93201300Y-47264550D01*
X93779300Y-47264550D02*
X93432500Y-47264550D01*
X93605900Y-47264550D02*
X93605900Y-46657650D01*
X93548100Y-46744350D01*
X93490300Y-46802150D01*
X93432500Y-46831050D01*
X92247600Y-49226550D02*
X92189800Y-49197650D01*
X92103100Y-49197650D01*
X92016400Y-49226550D01*
X91958600Y-49284350D01*
X91929700Y-49342150D01*
X91900800Y-49457750D01*
X91900800Y-49544450D01*
X91929700Y-49660050D01*
X91958600Y-49717850D01*
X92016400Y-49775650D01*
X92103100Y-49804550D01*
X92160900Y-49804550D01*
X92247600Y-49775650D01*
X92276500Y-49746750D01*
X92276500Y-49544450D01*
X92160900Y-49544450D01*
X92536600Y-49804550D02*
X92536600Y-49197650D01*
X92883400Y-49804550D01*
X92883400Y-49197650D01*
X93172400Y-49804550D02*
X93172400Y-49197650D01*
X93316900Y-49197650D01*
X93403600Y-49226550D01*
X93461400Y-49284350D01*
X93490300Y-49342150D01*
X93519200Y-49457750D01*
X93519200Y-49544450D01*
X93490300Y-49660050D01*
X93461400Y-49717850D01*
X93403600Y-49775650D01*
X93316900Y-49804550D01*
X93172400Y-49804550D01*
X84627600Y-46686550D02*
X84569800Y-46657650D01*
X84483100Y-46657650D01*
X84396400Y-46686550D01*
X84338600Y-46744350D01*
X84309700Y-46802150D01*
X84280800Y-46917750D01*
X84280800Y-47004450D01*
X84309700Y-47120050D01*
X84338600Y-47177850D01*
X84396400Y-47235650D01*
X84483100Y-47264550D01*
X84540900Y-47264550D01*
X84627600Y-47235650D01*
X84656500Y-47206750D01*
X84656500Y-47004450D01*
X84540900Y-47004450D01*
X84916600Y-47264550D02*
X84916600Y-46657650D01*
X85263400Y-47264550D01*
X85263400Y-46657650D01*
X85552400Y-47264550D02*
X85552400Y-46657650D01*
X85696900Y-46657650D01*
X85783600Y-46686550D01*
X85841400Y-46744350D01*
X85870300Y-46802150D01*
X85899200Y-46917750D01*
X85899200Y-47004450D01*
X85870300Y-47120050D01*
X85841400Y-47177850D01*
X85783600Y-47235650D01*
X85696900Y-47264550D01*
X85552400Y-47264550D01*
X79547600Y-46686550D02*
X79489800Y-46657650D01*
X79403100Y-46657650D01*
X79316400Y-46686550D01*
X79258600Y-46744350D01*
X79229700Y-46802150D01*
X79200800Y-46917750D01*
X79200800Y-47004450D01*
X79229700Y-47120050D01*
X79258600Y-47177850D01*
X79316400Y-47235650D01*
X79403100Y-47264550D01*
X79460900Y-47264550D01*
X79547600Y-47235650D01*
X79576500Y-47206750D01*
X79576500Y-47004450D01*
X79460900Y-47004450D01*
X79836600Y-47264550D02*
X79836600Y-46657650D01*
X80183400Y-47264550D01*
X80183400Y-46657650D01*
X80472400Y-47264550D02*
X80472400Y-46657650D01*
X80616900Y-46657650D01*
X80703600Y-46686550D01*
X80761400Y-46744350D01*
X80790300Y-46802150D01*
X80819200Y-46917750D01*
X80819200Y-47004450D01*
X80790300Y-47120050D01*
X80761400Y-47177850D01*
X80703600Y-47235650D01*
X80616900Y-47264550D01*
X80472400Y-47264550D01*
X74467600Y-49226550D02*
X74409800Y-49197650D01*
X74323100Y-49197650D01*
X74236400Y-49226550D01*
X74178600Y-49284350D01*
X74149700Y-49342150D01*
X74120800Y-49457750D01*
X74120800Y-49544450D01*
X74149700Y-49660050D01*
X74178600Y-49717850D01*
X74236400Y-49775650D01*
X74323100Y-49804550D01*
X74380900Y-49804550D01*
X74467600Y-49775650D01*
X74496500Y-49746750D01*
X74496500Y-49544450D01*
X74380900Y-49544450D01*
X74756600Y-49804550D02*
X74756600Y-49197650D01*
X75103400Y-49804550D01*
X75103400Y-49197650D01*
X75392400Y-49804550D02*
X75392400Y-49197650D01*
X75536900Y-49197650D01*
X75623600Y-49226550D01*
X75681400Y-49284350D01*
X75710300Y-49342150D01*
X75739200Y-49457750D01*
X75739200Y-49544450D01*
X75710300Y-49660050D01*
X75681400Y-49717850D01*
X75623600Y-49775650D01*
X75536900Y-49804550D01*
X75392400Y-49804550D01*
X66847600Y-46686550D02*
X66789800Y-46657650D01*
X66703100Y-46657650D01*
X66616400Y-46686550D01*
X66558600Y-46744350D01*
X66529700Y-46802150D01*
X66500800Y-46917750D01*
X66500800Y-47004450D01*
X66529700Y-47120050D01*
X66558600Y-47177850D01*
X66616400Y-47235650D01*
X66703100Y-47264550D01*
X66760900Y-47264550D01*
X66847600Y-47235650D01*
X66876500Y-47206750D01*
X66876500Y-47004450D01*
X66760900Y-47004450D01*
X67136600Y-47264550D02*
X67136600Y-46657650D01*
X67483400Y-47264550D01*
X67483400Y-46657650D01*
X67772400Y-47264550D02*
X67772400Y-46657650D01*
X67916900Y-46657650D01*
X68003600Y-46686550D01*
X68061400Y-46744350D01*
X68090300Y-46802150D01*
X68119200Y-46917750D01*
X68119200Y-47004450D01*
X68090300Y-47120050D01*
X68061400Y-47177850D01*
X68003600Y-47235650D01*
X67916900Y-47264550D01*
X67772400Y-47264550D01*
X59227600Y-46686550D02*
X59169800Y-46657650D01*
X59083100Y-46657650D01*
X58996400Y-46686550D01*
X58938600Y-46744350D01*
X58909700Y-46802150D01*
X58880800Y-46917750D01*
X58880800Y-47004450D01*
X58909700Y-47120050D01*
X58938600Y-47177850D01*
X58996400Y-47235650D01*
X59083100Y-47264550D01*
X59140900Y-47264550D01*
X59227600Y-47235650D01*
X59256500Y-47206750D01*
X59256500Y-47004450D01*
X59140900Y-47004450D01*
X59516600Y-47264550D02*
X59516600Y-46657650D01*
X59863400Y-47264550D01*
X59863400Y-46657650D01*
X60152400Y-47264550D02*
X60152400Y-46657650D01*
X60296900Y-46657650D01*
X60383600Y-46686550D01*
X60441400Y-46744350D01*
X60470300Y-46802150D01*
X60499200Y-46917750D01*
X60499200Y-47004450D01*
X60470300Y-47120050D01*
X60441400Y-47177850D01*
X60383600Y-47235650D01*
X60296900Y-47264550D01*
X60152400Y-47264550D01*
X49067600Y-46686550D02*
X49009800Y-46657650D01*
X48923100Y-46657650D01*
X48836400Y-46686550D01*
X48778600Y-46744350D01*
X48749700Y-46802150D01*
X48720800Y-46917750D01*
X48720800Y-47004450D01*
X48749700Y-47120050D01*
X48778600Y-47177850D01*
X48836400Y-47235650D01*
X48923100Y-47264550D01*
X48980900Y-47264550D01*
X49067600Y-47235650D01*
X49096500Y-47206750D01*
X49096500Y-47004450D01*
X48980900Y-47004450D01*
X49356600Y-47264550D02*
X49356600Y-46657650D01*
X49703400Y-47264550D01*
X49703400Y-46657650D01*
X49992400Y-47264550D02*
X49992400Y-46657650D01*
X50136900Y-46657650D01*
X50223600Y-46686550D01*
X50281400Y-46744350D01*
X50310300Y-46802150D01*
X50339200Y-46917750D01*
X50339200Y-47004450D01*
X50310300Y-47120050D01*
X50281400Y-47177850D01*
X50223600Y-47235650D01*
X50136900Y-47264550D01*
X49992400Y-47264550D01*
X46874400Y-46657650D02*
X46585400Y-46657650D01*
X46556500Y-46946650D01*
X46585400Y-46917750D01*
X46643200Y-46888850D01*
X46787700Y-46888850D01*
X46845500Y-46917750D01*
X46874400Y-46946650D01*
X46903300Y-47004450D01*
X46903300Y-47148950D01*
X46874400Y-47206750D01*
X46845500Y-47235650D01*
X46787700Y-47264550D01*
X46643200Y-47264550D01*
X46585400Y-47235650D01*
X46556500Y-47206750D01*
X47076700Y-46657650D02*
X47279000Y-47264550D01*
X47481300Y-46657650D01*
X44334400Y-46657650D02*
X44045400Y-46657650D01*
X44016500Y-46946650D01*
X44045400Y-46917750D01*
X44103200Y-46888850D01*
X44247700Y-46888850D01*
X44305500Y-46917750D01*
X44334400Y-46946650D01*
X44363300Y-47004450D01*
X44363300Y-47148950D01*
X44334400Y-47206750D01*
X44305500Y-47235650D01*
X44247700Y-47264550D01*
X44103200Y-47264550D01*
X44045400Y-47235650D01*
X44016500Y-47206750D01*
X44536700Y-46657650D02*
X44739000Y-47264550D01*
X44941300Y-46657650D01*
D10*
X98044000Y-51181000D02*
G75*
G03X98044000Y-51181000I-127000J0D01*
G01*
D12*
G04 #@! TO.C,U1*
X98526000Y-50380000D02*
X98426000Y-50380000D01*
X98526000Y-55030000D02*
X98326000Y-55030000D01*
X95276000Y-55030000D02*
X95476000Y-55030000D01*
X95276000Y-50380000D02*
X95476000Y-50380000D01*
X98526000Y-50380000D02*
X98526000Y-55030000D01*
X95276000Y-50380000D02*
X95276000Y-55030000D01*
X98426000Y-50380000D02*
X98426000Y-49030000D01*
D13*
G04 #@! TO.C,JP1*
X99379000Y-57420000D02*
G75*
G02X100079000Y-58120000I0J-700000D01*
G01*
X100079000Y-58720000D02*
G75*
G02X99379000Y-59420000I-700000J0D01*
G01*
X97979000Y-59420000D02*
G75*
G02X97279000Y-58720000I0J700000D01*
G01*
X97279000Y-58120000D02*
G75*
G02X97979000Y-57420000I700000J0D01*
G01*
X97279000Y-58720000D02*
X97279000Y-58120000D01*
X99379000Y-59420000D02*
X97979000Y-59420000D01*
X100079000Y-58120000D02*
X100079000Y-58720000D01*
X97979000Y-57420000D02*
X99379000Y-57420000D01*
G04 #@! TO.C,C1*
X99185000Y-52867779D02*
X99185000Y-52542221D01*
X100205000Y-52867779D02*
X100205000Y-52542221D01*
G04 #@! TO.C,R1*
X98714779Y-62867000D02*
X98389221Y-62867000D01*
X98714779Y-61847000D02*
X98389221Y-61847000D01*
G04 #@! TO.C,R2*
X98714779Y-60323000D02*
X98389221Y-60323000D01*
X98714779Y-61343000D02*
X98389221Y-61343000D01*
G04 #@! TO.C,JP1*
D14*
X96019257Y-59269085D02*
X96933657Y-59051371D01*
X96280514Y-58877200D01*
X96933657Y-58703028D01*
X96019257Y-58485314D01*
X96933657Y-58136971D02*
X96019257Y-58136971D01*
X96019257Y-57788628D01*
X96062800Y-57701542D01*
X96106342Y-57658000D01*
X96193428Y-57614457D01*
X96324057Y-57614457D01*
X96411142Y-57658000D01*
X96454685Y-57701542D01*
X96498228Y-57788628D01*
X96498228Y-58136971D01*
G04 #@! TO.C,C1*
X99559533Y-50836285D02*
X99520828Y-50874990D01*
X99404714Y-50913695D01*
X99327304Y-50913695D01*
X99211190Y-50874990D01*
X99133780Y-50797580D01*
X99095076Y-50720171D01*
X99056371Y-50565352D01*
X99056371Y-50449238D01*
X99095076Y-50294419D01*
X99133780Y-50217009D01*
X99211190Y-50139600D01*
X99327304Y-50100895D01*
X99404714Y-50100895D01*
X99520828Y-50139600D01*
X99559533Y-50178304D01*
X100333628Y-50913695D02*
X99869171Y-50913695D01*
X100101400Y-50913695D02*
X100101400Y-50100895D01*
X100023990Y-50217009D01*
X99946580Y-50294419D01*
X99869171Y-50333123D01*
G04 #@! TO.C,R1*
X96887695Y-62428966D02*
X96500647Y-62699900D01*
X96887695Y-62893423D02*
X96074895Y-62893423D01*
X96074895Y-62583785D01*
X96113600Y-62506376D01*
X96152304Y-62467671D01*
X96229714Y-62428966D01*
X96345828Y-62428966D01*
X96423238Y-62467671D01*
X96461942Y-62506376D01*
X96500647Y-62583785D01*
X96500647Y-62893423D01*
X96887695Y-61654871D02*
X96887695Y-62119328D01*
X96887695Y-61887100D02*
X96074895Y-61887100D01*
X96191009Y-61964509D01*
X96268419Y-62041919D01*
X96307123Y-62119328D01*
G04 #@! TO.C,R2*
X96887695Y-60968466D02*
X96500647Y-61239400D01*
X96887695Y-61432923D02*
X96074895Y-61432923D01*
X96074895Y-61123285D01*
X96113600Y-61045876D01*
X96152304Y-61007171D01*
X96229714Y-60968466D01*
X96345828Y-60968466D01*
X96423238Y-61007171D01*
X96461942Y-61045876D01*
X96500647Y-61123285D01*
X96500647Y-61432923D01*
X96152304Y-60658828D02*
X96113600Y-60620123D01*
X96074895Y-60542714D01*
X96074895Y-60349190D01*
X96113600Y-60271780D01*
X96152304Y-60233076D01*
X96229714Y-60194371D01*
X96307123Y-60194371D01*
X96423238Y-60233076D01*
X96887695Y-60697533D01*
X96887695Y-60194371D01*
G04 #@! TD*
M02*
