G04 #@! TF.GenerationSoftware,KiCad,Pcbnew,5.0.2-bee76a0~70~ubuntu18.04.1*
G04 #@! TF.CreationDate,2019-03-02T20:55:38+01:00*
G04 #@! TF.ProjectId,rpi-zero-proto,7270692d-7a65-4726-9f2d-70726f746f2e,rev?*
G04 #@! TF.SameCoordinates,Original*
G04 #@! TF.FileFunction,Copper,L2,Bot*
G04 #@! TF.FilePolarity,Positive*
%FSLAX46Y46*%
G04 Gerber Fmt 4.6, Leading zero omitted, Abs format (unit mm)*
G04 Created by KiCad (PCBNEW 5.0.2-bee76a0~70~ubuntu18.04.1) date sob, 2 mar 2019, 20:55:38*
%MOMM*%
%LPD*%
G01*
G04 APERTURE LIST*
G04 #@! TA.AperFunction,ComponentPad*
%ADD10O,1.700000X1.700000*%
G04 #@! TD*
G04 #@! TA.AperFunction,ViaPad*
%ADD11C,0.800000*%
G04 #@! TD*
G04 #@! TA.AperFunction,Conductor*
%ADD12C,0.406400*%
G04 #@! TD*
G04 APERTURE END LIST*
D10*
G04 #@! TO.P,J3,40*
G04 #@! TO.N,Net-(J3-Pad40)*
X92710000Y-53340000D03*
G04 #@! TO.P,J3,39*
G04 #@! TO.N,Net-(J3-Pad39)*
X92710000Y-55880000D03*
G04 #@! TO.P,J3,38*
G04 #@! TO.N,Net-(J3-Pad38)*
X90170000Y-53340000D03*
G04 #@! TO.P,J3,37*
G04 #@! TO.N,Net-(J3-Pad37)*
X90170000Y-55880000D03*
G04 #@! TO.P,J3,36*
G04 #@! TO.N,Net-(J3-Pad36)*
X87630000Y-53340000D03*
G04 #@! TO.P,J3,35*
G04 #@! TO.N,Net-(J3-Pad35)*
X87630000Y-55880000D03*
G04 #@! TO.P,J3,34*
G04 #@! TO.N,Net-(J3-Pad34)*
X85090000Y-53340000D03*
G04 #@! TO.P,J3,33*
G04 #@! TO.N,Net-(J3-Pad33)*
X85090000Y-55880000D03*
G04 #@! TO.P,J3,32*
G04 #@! TO.N,Net-(J3-Pad32)*
X82550000Y-53340000D03*
G04 #@! TO.P,J3,31*
G04 #@! TO.N,Net-(J3-Pad31)*
X82550000Y-55880000D03*
G04 #@! TO.P,J3,30*
G04 #@! TO.N,Net-(J3-Pad30)*
X80010000Y-53340000D03*
G04 #@! TO.P,J3,29*
G04 #@! TO.N,Net-(J3-Pad29)*
X80010000Y-55880000D03*
G04 #@! TO.P,J3,28*
G04 #@! TO.N,Net-(J3-Pad28)*
X77470000Y-53340000D03*
G04 #@! TO.P,J3,27*
G04 #@! TO.N,Net-(J3-Pad27)*
X77470000Y-55880000D03*
G04 #@! TO.P,J3,26*
G04 #@! TO.N,Net-(J3-Pad26)*
X74930000Y-53340000D03*
G04 #@! TO.P,J3,25*
G04 #@! TO.N,Net-(J3-Pad25)*
X74930000Y-55880000D03*
G04 #@! TO.P,J3,24*
G04 #@! TO.N,Net-(J3-Pad24)*
X72390000Y-53340000D03*
G04 #@! TO.P,J3,23*
G04 #@! TO.N,Net-(J3-Pad23)*
X72390000Y-55880000D03*
G04 #@! TO.P,J3,22*
G04 #@! TO.N,Net-(J3-Pad22)*
X69850000Y-53340000D03*
G04 #@! TO.P,J3,21*
G04 #@! TO.N,Net-(J3-Pad21)*
X69850000Y-55880000D03*
G04 #@! TO.P,J3,20*
G04 #@! TO.N,Net-(J3-Pad20)*
X67310000Y-53340000D03*
G04 #@! TO.P,J3,19*
G04 #@! TO.N,Net-(J3-Pad19)*
X67310000Y-55880000D03*
G04 #@! TO.P,J3,18*
G04 #@! TO.N,Net-(J3-Pad18)*
X64770000Y-53340000D03*
G04 #@! TO.P,J3,17*
G04 #@! TO.N,Net-(J3-Pad17)*
X64770000Y-55880000D03*
G04 #@! TO.P,J3,16*
G04 #@! TO.N,Net-(J3-Pad16)*
X62230000Y-53340000D03*
G04 #@! TO.P,J3,15*
G04 #@! TO.N,Net-(J3-Pad15)*
X62230000Y-55880000D03*
G04 #@! TO.P,J3,14*
G04 #@! TO.N,Net-(J3-Pad14)*
X59690000Y-53340000D03*
G04 #@! TO.P,J3,13*
G04 #@! TO.N,Net-(J3-Pad13)*
X59690000Y-55880000D03*
G04 #@! TO.P,J3,12*
G04 #@! TO.N,Net-(J3-Pad12)*
X57150000Y-53340000D03*
G04 #@! TO.P,J3,11*
G04 #@! TO.N,Net-(J3-Pad11)*
X57150000Y-55880000D03*
G04 #@! TO.P,J3,10*
G04 #@! TO.N,Net-(J3-Pad10)*
X54610000Y-53340000D03*
G04 #@! TO.P,J3,9*
G04 #@! TO.N,Net-(J3-Pad9)*
X54610000Y-55880000D03*
G04 #@! TO.P,J3,8*
G04 #@! TO.N,Net-(J3-Pad8)*
X52070000Y-53340000D03*
G04 #@! TO.P,J3,7*
G04 #@! TO.N,Net-(J3-Pad7)*
X52070000Y-55880000D03*
G04 #@! TO.P,J3,6*
G04 #@! TO.N,Net-(J3-Pad6)*
X49530000Y-53340000D03*
G04 #@! TO.P,J3,5*
G04 #@! TO.N,Net-(J3-Pad5)*
X49530000Y-55880000D03*
G04 #@! TO.P,J3,4*
G04 #@! TO.N,Net-(J3-Pad4)*
X46990000Y-53340000D03*
G04 #@! TO.P,J3,3*
G04 #@! TO.N,Net-(J3-Pad3)*
X46990000Y-55880000D03*
G04 #@! TO.P,J3,2*
G04 #@! TO.N,Net-(J3-Pad2)*
X44450000Y-53340000D03*
G04 #@! TO.P,J3,1*
G04 #@! TO.N,Net-(J3-Pad1)*
X44450000Y-55880000D03*
G04 #@! TD*
G04 #@! TO.P,J4,1*
G04 #@! TO.N,Net-(J4-Pad1)*
X44450000Y-60960000D03*
G04 #@! TO.P,J4,2*
G04 #@! TO.N,Net-(J4-Pad2)*
X44450000Y-58420000D03*
G04 #@! TO.P,J4,3*
G04 #@! TO.N,Net-(J4-Pad3)*
X46990000Y-60960000D03*
G04 #@! TO.P,J4,4*
G04 #@! TO.N,Net-(J4-Pad4)*
X46990000Y-58420000D03*
G04 #@! TO.P,J4,5*
G04 #@! TO.N,Net-(J4-Pad5)*
X49530000Y-60960000D03*
G04 #@! TO.P,J4,6*
G04 #@! TO.N,Net-(J4-Pad6)*
X49530000Y-58420000D03*
G04 #@! TO.P,J4,7*
G04 #@! TO.N,Net-(J4-Pad7)*
X52070000Y-60960000D03*
G04 #@! TO.P,J4,8*
G04 #@! TO.N,Net-(J4-Pad8)*
X52070000Y-58420000D03*
G04 #@! TO.P,J4,9*
G04 #@! TO.N,Net-(J4-Pad9)*
X54610000Y-60960000D03*
G04 #@! TO.P,J4,10*
G04 #@! TO.N,Net-(J4-Pad10)*
X54610000Y-58420000D03*
G04 #@! TO.P,J4,11*
G04 #@! TO.N,Net-(J4-Pad11)*
X57150000Y-60960000D03*
G04 #@! TO.P,J4,12*
G04 #@! TO.N,Net-(J4-Pad12)*
X57150000Y-58420000D03*
G04 #@! TO.P,J4,13*
G04 #@! TO.N,Net-(J4-Pad13)*
X59690000Y-60960000D03*
G04 #@! TO.P,J4,14*
G04 #@! TO.N,Net-(J4-Pad14)*
X59690000Y-58420000D03*
G04 #@! TO.P,J4,15*
G04 #@! TO.N,Net-(J4-Pad15)*
X62230000Y-60960000D03*
G04 #@! TO.P,J4,16*
G04 #@! TO.N,Net-(J4-Pad16)*
X62230000Y-58420000D03*
G04 #@! TO.P,J4,17*
G04 #@! TO.N,Net-(J4-Pad17)*
X64770000Y-60960000D03*
G04 #@! TO.P,J4,18*
G04 #@! TO.N,Net-(J4-Pad18)*
X64770000Y-58420000D03*
G04 #@! TO.P,J4,19*
G04 #@! TO.N,Net-(J4-Pad19)*
X67310000Y-60960000D03*
G04 #@! TO.P,J4,20*
G04 #@! TO.N,Net-(J4-Pad20)*
X67310000Y-58420000D03*
G04 #@! TO.P,J4,21*
G04 #@! TO.N,Net-(J4-Pad21)*
X69850000Y-60960000D03*
G04 #@! TO.P,J4,22*
G04 #@! TO.N,Net-(J4-Pad22)*
X69850000Y-58420000D03*
G04 #@! TO.P,J4,23*
G04 #@! TO.N,Net-(J4-Pad23)*
X72390000Y-60960000D03*
G04 #@! TO.P,J4,24*
G04 #@! TO.N,Net-(J4-Pad24)*
X72390000Y-58420000D03*
G04 #@! TO.P,J4,25*
G04 #@! TO.N,Net-(J4-Pad25)*
X74930000Y-60960000D03*
G04 #@! TO.P,J4,26*
G04 #@! TO.N,Net-(J4-Pad26)*
X74930000Y-58420000D03*
G04 #@! TO.P,J4,27*
G04 #@! TO.N,Net-(J4-Pad27)*
X77470000Y-60960000D03*
G04 #@! TO.P,J4,28*
G04 #@! TO.N,Net-(J4-Pad28)*
X77470000Y-58420000D03*
G04 #@! TO.P,J4,29*
G04 #@! TO.N,Net-(J4-Pad29)*
X80010000Y-60960000D03*
G04 #@! TO.P,J4,30*
G04 #@! TO.N,Net-(J4-Pad30)*
X80010000Y-58420000D03*
G04 #@! TO.P,J4,31*
G04 #@! TO.N,Net-(J4-Pad31)*
X82550000Y-60960000D03*
G04 #@! TO.P,J4,32*
G04 #@! TO.N,Net-(J4-Pad32)*
X82550000Y-58420000D03*
G04 #@! TO.P,J4,33*
G04 #@! TO.N,Net-(J4-Pad33)*
X85090000Y-60960000D03*
G04 #@! TO.P,J4,34*
G04 #@! TO.N,Net-(J4-Pad34)*
X85090000Y-58420000D03*
G04 #@! TO.P,J4,35*
G04 #@! TO.N,Net-(J4-Pad35)*
X87630000Y-60960000D03*
G04 #@! TO.P,J4,36*
G04 #@! TO.N,Net-(J4-Pad36)*
X87630000Y-58420000D03*
G04 #@! TO.P,J4,37*
G04 #@! TO.N,Net-(J4-Pad37)*
X90170000Y-60960000D03*
G04 #@! TO.P,J4,38*
G04 #@! TO.N,Net-(J4-Pad38)*
X90170000Y-58420000D03*
G04 #@! TO.P,J4,39*
G04 #@! TO.N,Net-(J4-Pad39)*
X92710000Y-60960000D03*
G04 #@! TO.P,J4,40*
G04 #@! TO.N,Net-(J4-Pad40)*
X92710000Y-58420000D03*
G04 #@! TD*
G04 #@! TO.P,J5,40*
G04 #@! TO.N,Net-(J5-Pad40)*
X92710000Y-63500000D03*
G04 #@! TO.P,J5,39*
G04 #@! TO.N,Net-(J5-Pad39)*
X92710000Y-66040000D03*
G04 #@! TO.P,J5,38*
G04 #@! TO.N,Net-(J5-Pad38)*
X90170000Y-63500000D03*
G04 #@! TO.P,J5,37*
G04 #@! TO.N,Net-(J5-Pad37)*
X90170000Y-66040000D03*
G04 #@! TO.P,J5,36*
G04 #@! TO.N,Net-(J5-Pad36)*
X87630000Y-63500000D03*
G04 #@! TO.P,J5,35*
G04 #@! TO.N,Net-(J5-Pad35)*
X87630000Y-66040000D03*
G04 #@! TO.P,J5,34*
G04 #@! TO.N,Net-(J5-Pad34)*
X85090000Y-63500000D03*
G04 #@! TO.P,J5,33*
G04 #@! TO.N,Net-(J5-Pad33)*
X85090000Y-66040000D03*
G04 #@! TO.P,J5,32*
G04 #@! TO.N,Net-(J5-Pad32)*
X82550000Y-63500000D03*
G04 #@! TO.P,J5,31*
G04 #@! TO.N,Net-(J5-Pad31)*
X82550000Y-66040000D03*
G04 #@! TO.P,J5,30*
G04 #@! TO.N,Net-(J5-Pad30)*
X80010000Y-63500000D03*
G04 #@! TO.P,J5,29*
G04 #@! TO.N,Net-(J5-Pad29)*
X80010000Y-66040000D03*
G04 #@! TO.P,J5,28*
G04 #@! TO.N,Net-(J5-Pad28)*
X77470000Y-63500000D03*
G04 #@! TO.P,J5,27*
G04 #@! TO.N,Net-(J5-Pad27)*
X77470000Y-66040000D03*
G04 #@! TO.P,J5,26*
G04 #@! TO.N,Net-(J5-Pad26)*
X74930000Y-63500000D03*
G04 #@! TO.P,J5,25*
G04 #@! TO.N,Net-(J5-Pad25)*
X74930000Y-66040000D03*
G04 #@! TO.P,J5,24*
G04 #@! TO.N,Net-(J5-Pad24)*
X72390000Y-63500000D03*
G04 #@! TO.P,J5,23*
G04 #@! TO.N,Net-(J5-Pad23)*
X72390000Y-66040000D03*
G04 #@! TO.P,J5,22*
G04 #@! TO.N,Net-(J5-Pad22)*
X69850000Y-63500000D03*
G04 #@! TO.P,J5,21*
G04 #@! TO.N,Net-(J5-Pad21)*
X69850000Y-66040000D03*
G04 #@! TO.P,J5,20*
G04 #@! TO.N,Net-(J5-Pad20)*
X67310000Y-63500000D03*
G04 #@! TO.P,J5,19*
G04 #@! TO.N,Net-(J5-Pad19)*
X67310000Y-66040000D03*
G04 #@! TO.P,J5,18*
G04 #@! TO.N,Net-(J5-Pad18)*
X64770000Y-63500000D03*
G04 #@! TO.P,J5,17*
G04 #@! TO.N,Net-(J5-Pad17)*
X64770000Y-66040000D03*
G04 #@! TO.P,J5,16*
G04 #@! TO.N,Net-(J5-Pad16)*
X62230000Y-63500000D03*
G04 #@! TO.P,J5,15*
G04 #@! TO.N,Net-(J5-Pad15)*
X62230000Y-66040000D03*
G04 #@! TO.P,J5,14*
G04 #@! TO.N,Net-(J5-Pad14)*
X59690000Y-63500000D03*
G04 #@! TO.P,J5,13*
G04 #@! TO.N,Net-(J5-Pad13)*
X59690000Y-66040000D03*
G04 #@! TO.P,J5,12*
G04 #@! TO.N,Net-(J5-Pad12)*
X57150000Y-63500000D03*
G04 #@! TO.P,J5,11*
G04 #@! TO.N,Net-(J5-Pad11)*
X57150000Y-66040000D03*
G04 #@! TO.P,J5,10*
G04 #@! TO.N,Net-(J5-Pad10)*
X54610000Y-63500000D03*
G04 #@! TO.P,J5,9*
G04 #@! TO.N,Net-(J5-Pad9)*
X54610000Y-66040000D03*
G04 #@! TO.P,J5,8*
G04 #@! TO.N,Net-(J5-Pad8)*
X52070000Y-63500000D03*
G04 #@! TO.P,J5,7*
G04 #@! TO.N,Net-(J5-Pad7)*
X52070000Y-66040000D03*
G04 #@! TO.P,J5,6*
G04 #@! TO.N,Net-(J5-Pad6)*
X49530000Y-63500000D03*
G04 #@! TO.P,J5,5*
G04 #@! TO.N,Net-(J5-Pad5)*
X49530000Y-66040000D03*
G04 #@! TO.P,J5,4*
G04 #@! TO.N,Net-(J5-Pad4)*
X46990000Y-63500000D03*
G04 #@! TO.P,J5,3*
G04 #@! TO.N,Net-(J5-Pad3)*
X46990000Y-66040000D03*
G04 #@! TO.P,J5,2*
G04 #@! TO.N,Net-(J5-Pad2)*
X44450000Y-63500000D03*
G04 #@! TO.P,J5,1*
G04 #@! TO.N,Net-(J5-Pad1)*
X44450000Y-66040000D03*
G04 #@! TD*
G04 #@! TO.P,J6,20*
G04 #@! TO.N,Net-(J6-Pad20)*
X92710000Y-68580000D03*
G04 #@! TO.P,J6,19*
G04 #@! TO.N,Net-(J6-Pad19)*
X90170000Y-68580000D03*
G04 #@! TO.P,J6,18*
G04 #@! TO.N,Net-(J6-Pad18)*
X87630000Y-68580000D03*
G04 #@! TO.P,J6,17*
G04 #@! TO.N,Net-(J6-Pad17)*
X85090000Y-68580000D03*
G04 #@! TO.P,J6,16*
G04 #@! TO.N,Net-(J6-Pad16)*
X82550000Y-68580000D03*
G04 #@! TO.P,J6,15*
G04 #@! TO.N,Net-(J6-Pad15)*
X80010000Y-68580000D03*
G04 #@! TO.P,J6,14*
G04 #@! TO.N,Net-(J6-Pad14)*
X77470000Y-68580000D03*
G04 #@! TO.P,J6,13*
G04 #@! TO.N,Net-(J6-Pad13)*
X74930000Y-68580000D03*
G04 #@! TO.P,J6,12*
G04 #@! TO.N,Net-(J6-Pad12)*
X72390000Y-68580000D03*
G04 #@! TO.P,J6,11*
G04 #@! TO.N,Net-(J6-Pad11)*
X69850000Y-68580000D03*
G04 #@! TO.P,J6,10*
G04 #@! TO.N,Net-(J6-Pad10)*
X67310000Y-68580000D03*
G04 #@! TO.P,J6,9*
G04 #@! TO.N,Net-(J6-Pad9)*
X64770000Y-68580000D03*
G04 #@! TO.P,J6,8*
G04 #@! TO.N,Net-(J6-Pad8)*
X62230000Y-68580000D03*
G04 #@! TO.P,J6,7*
G04 #@! TO.N,Net-(J6-Pad7)*
X59690000Y-68580000D03*
G04 #@! TO.P,J6,6*
G04 #@! TO.N,Net-(J6-Pad6)*
X57150000Y-68580000D03*
G04 #@! TO.P,J6,5*
G04 #@! TO.N,Net-(J6-Pad5)*
X54610000Y-68580000D03*
G04 #@! TO.P,J6,4*
G04 #@! TO.N,Net-(J6-Pad4)*
X52070000Y-68580000D03*
G04 #@! TO.P,J6,3*
G04 #@! TO.N,Net-(J6-Pad3)*
X49530000Y-68580000D03*
G04 #@! TO.P,J6,2*
G04 #@! TO.N,Net-(J6-Pad2)*
X46990000Y-68580000D03*
G04 #@! TO.P,J6,1*
G04 #@! TO.N,Net-(J6-Pad1)*
X44450000Y-68580000D03*
G04 #@! TD*
G04 #@! TO.P,J7,1*
G04 #@! TO.N,3V3-1*
X39370000Y-48260000D03*
G04 #@! TO.P,J7,2*
X39370000Y-50800000D03*
G04 #@! TO.P,J7,3*
X39370000Y-53340000D03*
G04 #@! TO.P,J7,4*
X39370000Y-55880000D03*
G04 #@! TO.P,J7,5*
X39370000Y-58420000D03*
G04 #@! TO.P,J7,6*
X39370000Y-60960000D03*
G04 #@! TO.P,J7,7*
X39370000Y-63500000D03*
G04 #@! TD*
G04 #@! TO.P,J8,7*
G04 #@! TO.N,GND-6*
X41910000Y-63500000D03*
G04 #@! TO.P,J8,6*
X41910000Y-60960000D03*
G04 #@! TO.P,J8,5*
X41910000Y-58420000D03*
G04 #@! TO.P,J8,4*
X41910000Y-55880000D03*
G04 #@! TO.P,J8,3*
X41910000Y-53340000D03*
G04 #@! TO.P,J8,2*
X41910000Y-50800000D03*
G04 #@! TO.P,J8,1*
X41910000Y-48260000D03*
G04 #@! TD*
G04 #@! TO.P,J2,40*
G04 #@! TO.N,GPIO21*
X92710000Y-48260000D03*
G04 #@! TO.P,J2,39*
G04 #@! TO.N,GND-39*
X92710000Y-50800000D03*
G04 #@! TO.P,J2,38*
G04 #@! TO.N,GPIO20*
X90170000Y-48260000D03*
G04 #@! TO.P,J2,37*
G04 #@! TO.N,GPIO26*
X90170000Y-50800000D03*
G04 #@! TO.P,J2,36*
G04 #@! TO.N,GPIO16*
X87630000Y-48260000D03*
G04 #@! TO.P,J2,35*
G04 #@! TO.N,GPIO19*
X87630000Y-50800000D03*
G04 #@! TO.P,J2,34*
G04 #@! TO.N,GND-34*
X85090000Y-48260000D03*
G04 #@! TO.P,J2,33*
G04 #@! TO.N,GPIO13*
X85090000Y-50800000D03*
G04 #@! TO.P,J2,32*
G04 #@! TO.N,GPIO12*
X82550000Y-48260000D03*
G04 #@! TO.P,J2,31*
G04 #@! TO.N,GPIO6*
X82550000Y-50800000D03*
G04 #@! TO.P,J2,30*
G04 #@! TO.N,GND-30*
X80010000Y-48260000D03*
G04 #@! TO.P,J2,29*
G04 #@! TO.N,GPIO5*
X80010000Y-50800000D03*
G04 #@! TO.P,J2,28*
G04 #@! TO.N,GPIO1*
X77470000Y-48260000D03*
G04 #@! TO.P,J2,27*
G04 #@! TO.N,GPIO0*
X77470000Y-50800000D03*
G04 #@! TO.P,J2,26*
G04 #@! TO.N,GPIO7*
X74930000Y-48260000D03*
G04 #@! TO.P,J2,25*
G04 #@! TO.N,GND-25*
X74930000Y-50800000D03*
G04 #@! TO.P,J2,24*
G04 #@! TO.N,GPIO8*
X72390000Y-48260000D03*
G04 #@! TO.P,J2,23*
G04 #@! TO.N,GPIO11*
X72390000Y-50800000D03*
G04 #@! TO.P,J2,22*
G04 #@! TO.N,GPIO25*
X69850000Y-48260000D03*
G04 #@! TO.P,J2,21*
G04 #@! TO.N,GPIO9*
X69850000Y-50800000D03*
G04 #@! TO.P,J2,20*
G04 #@! TO.N,GND-20*
X67310000Y-48260000D03*
G04 #@! TO.P,J2,19*
G04 #@! TO.N,GPIO10*
X67310000Y-50800000D03*
G04 #@! TO.P,J2,18*
G04 #@! TO.N,GPIO24*
X64770000Y-48260000D03*
G04 #@! TO.P,J2,17*
G04 #@! TO.N,3V3-17*
X64770000Y-50800000D03*
G04 #@! TO.P,J2,16*
G04 #@! TO.N,GPIO23*
X62230000Y-48260000D03*
G04 #@! TO.P,J2,15*
G04 #@! TO.N,GPIO22*
X62230000Y-50800000D03*
G04 #@! TO.P,J2,14*
G04 #@! TO.N,GND-14*
X59690000Y-48260000D03*
G04 #@! TO.P,J2,13*
G04 #@! TO.N,GPIO27*
X59690000Y-50800000D03*
G04 #@! TO.P,J2,12*
G04 #@! TO.N,GPIO18*
X57150000Y-48260000D03*
G04 #@! TO.P,J2,11*
G04 #@! TO.N,GPIO17*
X57150000Y-50800000D03*
G04 #@! TO.P,J2,10*
G04 #@! TO.N,GPIO15*
X54610000Y-48260000D03*
G04 #@! TO.P,J2,9*
G04 #@! TO.N,GND-9*
X54610000Y-50800000D03*
G04 #@! TO.P,J2,8*
G04 #@! TO.N,GPIO14*
X52070000Y-48260000D03*
G04 #@! TO.P,J2,7*
G04 #@! TO.N,GPIO4*
X52070000Y-50800000D03*
G04 #@! TO.P,J2,6*
G04 #@! TO.N,GND-6*
X49530000Y-48260000D03*
G04 #@! TO.P,J2,5*
G04 #@! TO.N,GPIO3*
X49530000Y-50800000D03*
G04 #@! TO.P,J2,4*
G04 #@! TO.N,5V-4*
X46990000Y-48260000D03*
G04 #@! TO.P,J2,3*
G04 #@! TO.N,GPIO2*
X46990000Y-50800000D03*
G04 #@! TO.P,J2,2*
G04 #@! TO.N,5V-2*
X44450000Y-48260000D03*
G04 #@! TO.P,J2,1*
G04 #@! TO.N,3V3-1*
X44450000Y-50800000D03*
G04 #@! TD*
G04 #@! TO.P,J1,40*
G04 #@! TO.N,GPIO21*
X92710000Y-43180000D03*
G04 #@! TO.P,J1,39*
G04 #@! TO.N,GND-39*
X92710000Y-45720000D03*
G04 #@! TO.P,J1,38*
G04 #@! TO.N,GPIO20*
X90170000Y-43180000D03*
G04 #@! TO.P,J1,37*
G04 #@! TO.N,GPIO26*
X90170000Y-45720000D03*
G04 #@! TO.P,J1,36*
G04 #@! TO.N,GPIO16*
X87630000Y-43180000D03*
G04 #@! TO.P,J1,35*
G04 #@! TO.N,GPIO19*
X87630000Y-45720000D03*
G04 #@! TO.P,J1,34*
G04 #@! TO.N,GND-34*
X85090000Y-43180000D03*
G04 #@! TO.P,J1,33*
G04 #@! TO.N,GPIO13*
X85090000Y-45720000D03*
G04 #@! TO.P,J1,32*
G04 #@! TO.N,GPIO12*
X82550000Y-43180000D03*
G04 #@! TO.P,J1,31*
G04 #@! TO.N,GPIO6*
X82550000Y-45720000D03*
G04 #@! TO.P,J1,30*
G04 #@! TO.N,GND-30*
X80010000Y-43180000D03*
G04 #@! TO.P,J1,29*
G04 #@! TO.N,GPIO5*
X80010000Y-45720000D03*
G04 #@! TO.P,J1,28*
G04 #@! TO.N,GPIO1*
X77470000Y-43180000D03*
G04 #@! TO.P,J1,27*
G04 #@! TO.N,GPIO0*
X77470000Y-45720000D03*
G04 #@! TO.P,J1,26*
G04 #@! TO.N,GPIO7*
X74930000Y-43180000D03*
G04 #@! TO.P,J1,25*
G04 #@! TO.N,GND-25*
X74930000Y-45720000D03*
G04 #@! TO.P,J1,24*
G04 #@! TO.N,GPIO8*
X72390000Y-43180000D03*
G04 #@! TO.P,J1,23*
G04 #@! TO.N,GPIO11*
X72390000Y-45720000D03*
G04 #@! TO.P,J1,22*
G04 #@! TO.N,GPIO25*
X69850000Y-43180000D03*
G04 #@! TO.P,J1,21*
G04 #@! TO.N,GPIO9*
X69850000Y-45720000D03*
G04 #@! TO.P,J1,20*
G04 #@! TO.N,GND-20*
X67310000Y-43180000D03*
G04 #@! TO.P,J1,19*
G04 #@! TO.N,GPIO10*
X67310000Y-45720000D03*
G04 #@! TO.P,J1,18*
G04 #@! TO.N,GPIO24*
X64770000Y-43180000D03*
G04 #@! TO.P,J1,17*
G04 #@! TO.N,3V3-17*
X64770000Y-45720000D03*
G04 #@! TO.P,J1,16*
G04 #@! TO.N,GPIO23*
X62230000Y-43180000D03*
G04 #@! TO.P,J1,15*
G04 #@! TO.N,GPIO22*
X62230000Y-45720000D03*
G04 #@! TO.P,J1,14*
G04 #@! TO.N,GND-14*
X59690000Y-43180000D03*
G04 #@! TO.P,J1,13*
G04 #@! TO.N,GPIO27*
X59690000Y-45720000D03*
G04 #@! TO.P,J1,12*
G04 #@! TO.N,GPIO18*
X57150000Y-43180000D03*
G04 #@! TO.P,J1,11*
G04 #@! TO.N,GPIO17*
X57150000Y-45720000D03*
G04 #@! TO.P,J1,10*
G04 #@! TO.N,GPIO15*
X54610000Y-43180000D03*
G04 #@! TO.P,J1,9*
G04 #@! TO.N,GND-9*
X54610000Y-45720000D03*
G04 #@! TO.P,J1,8*
G04 #@! TO.N,GPIO14*
X52070000Y-43180000D03*
G04 #@! TO.P,J1,7*
G04 #@! TO.N,GPIO4*
X52070000Y-45720000D03*
G04 #@! TO.P,J1,6*
G04 #@! TO.N,GND-6*
X49530000Y-43180000D03*
G04 #@! TO.P,J1,5*
G04 #@! TO.N,GPIO3*
X49530000Y-45720000D03*
G04 #@! TO.P,J1,4*
G04 #@! TO.N,5V-4*
X46990000Y-43180000D03*
G04 #@! TO.P,J1,3*
G04 #@! TO.N,GPIO2*
X46990000Y-45720000D03*
G04 #@! TO.P,J1,2*
G04 #@! TO.N,5V-2*
X44450000Y-43180000D03*
G04 #@! TO.P,J1,1*
G04 #@! TO.N,3V3-1*
X44450000Y-45720000D03*
G04 #@! TD*
D11*
G04 #@! TO.N,3V3-17*
X99695000Y-54610000D03*
G04 #@! TD*
D12*
G04 #@! TO.N,3V3-1*
X44450000Y-45720000D02*
X43180000Y-46990000D01*
X43180000Y-46990000D02*
X43180000Y-49530000D01*
X43180000Y-49530000D02*
X44450000Y-50800000D01*
X39370000Y-48260000D02*
X39370000Y-49530000D01*
X39370000Y-49530000D02*
X39370000Y-63500000D01*
X39370000Y-49530000D02*
X43180000Y-49530000D01*
G04 #@! TO.N,GPIO2*
X46990000Y-45720000D02*
X45720000Y-46990000D01*
X45720000Y-46990000D02*
X45720000Y-49530000D01*
X45720000Y-49530000D02*
X46990000Y-50800000D01*
G04 #@! TO.N,GPIO3*
X49530000Y-45720000D02*
X48260000Y-46990000D01*
X48260000Y-46990000D02*
X48260000Y-49530000D01*
X48260000Y-49530000D02*
X49530000Y-50800000D01*
G04 #@! TO.N,GND-9*
X54610000Y-45720000D02*
X53340000Y-46990000D01*
X53340000Y-46990000D02*
X53340000Y-49530000D01*
X53340000Y-49530000D02*
X54610000Y-50800000D01*
G04 #@! TO.N,GPIO4*
X52070000Y-45720000D02*
X50800000Y-46990000D01*
X50800000Y-46990000D02*
X50800000Y-49530000D01*
X50800000Y-49530000D02*
X52070000Y-50800000D01*
G04 #@! TO.N,GPIO17*
X57150000Y-45720000D02*
X55880000Y-46990000D01*
X55880000Y-46990000D02*
X55880000Y-49530000D01*
X55880000Y-49530000D02*
X57150000Y-50800000D01*
G04 #@! TO.N,GPIO27*
X59690000Y-45720000D02*
X58420000Y-46990000D01*
X58420000Y-46990000D02*
X58420000Y-49530000D01*
X58420000Y-49530000D02*
X59690000Y-50800000D01*
G04 #@! TO.N,GPIO22*
X62230000Y-45720000D02*
X60960000Y-46990000D01*
X60960000Y-46990000D02*
X60960000Y-49530000D01*
X60960000Y-49530000D02*
X62230000Y-50800000D01*
G04 #@! TO.N,3V3-17*
X64770000Y-45720000D02*
X63500000Y-46990000D01*
X63500000Y-46990000D02*
X63500000Y-49530000D01*
X63500000Y-49530000D02*
X64770000Y-50800000D01*
X66040000Y-52070000D02*
X66040000Y-53975000D01*
X66040000Y-53975000D02*
X66675000Y-54610000D01*
X66675000Y-54610000D02*
X66708463Y-54593201D01*
X64770000Y-50800000D02*
X66040000Y-52070000D01*
X66675000Y-54610000D02*
X99695000Y-54610000D01*
G04 #@! TO.N,GPIO10*
X67310000Y-45720000D02*
X66040000Y-46990000D01*
X66040000Y-46990000D02*
X66040000Y-49530000D01*
X66040000Y-49530000D02*
X67310000Y-50800000D01*
G04 #@! TO.N,GPIO9*
X69850000Y-45720000D02*
X68580000Y-46990000D01*
X68580000Y-49530000D02*
X69850000Y-50800000D01*
X68580000Y-46990000D02*
X68580000Y-49530000D01*
G04 #@! TO.N,GPIO11*
X72390000Y-45720000D02*
X71120000Y-46990000D01*
X71120000Y-46990000D02*
X71120000Y-49530000D01*
X71120000Y-49530000D02*
X72390000Y-50800000D01*
G04 #@! TO.N,GND-25*
X74930000Y-45720000D02*
X73660000Y-46990000D01*
X73660000Y-46990000D02*
X73660000Y-49530000D01*
X73660000Y-49530000D02*
X74930000Y-50800000D01*
G04 #@! TO.N,GPIO0*
X77470000Y-45720000D02*
X76200000Y-46990000D01*
X76200000Y-46990000D02*
X76200000Y-49530000D01*
X76200000Y-49530000D02*
X77470000Y-50800000D01*
G04 #@! TO.N,GPIO5*
X80010000Y-45720000D02*
X78740000Y-46990000D01*
X78740000Y-46990000D02*
X78740000Y-49530000D01*
X78740000Y-49530000D02*
X80010000Y-50800000D01*
G04 #@! TO.N,GPIO6*
X82550000Y-45720000D02*
X81280000Y-46990000D01*
X81280000Y-46990000D02*
X81280000Y-49530000D01*
X81280000Y-49530000D02*
X82550000Y-50800000D01*
G04 #@! TO.N,GPIO13*
X85090000Y-45720000D02*
X83820000Y-46990000D01*
X83820000Y-46990000D02*
X83820000Y-49530000D01*
X83820000Y-49530000D02*
X85090000Y-50800000D01*
G04 #@! TO.N,GPIO19*
X87630000Y-45720000D02*
X86360000Y-46990000D01*
X86360000Y-46990000D02*
X86360000Y-49530000D01*
X86360000Y-49530000D02*
X87630000Y-50800000D01*
G04 #@! TO.N,GPIO26*
X90170000Y-45720000D02*
X88900000Y-46990000D01*
X88900000Y-46990000D02*
X88900000Y-49530000D01*
X88900000Y-49530000D02*
X90170000Y-50800000D01*
G04 #@! TO.N,GND-39*
X92710000Y-45720000D02*
X91440000Y-46990000D01*
X91440000Y-46990000D02*
X91440000Y-49530000D01*
X91440000Y-49530000D02*
X92710000Y-50800000D01*
G04 #@! TD*
M02*
